<?xml version="1.0" encoding="UTF-8" standalone="no"?>
<!DOCTYPE svg PUBLIC "-//W3C//DTD SVG 1.1//EN" "http://www.w3.org/Graphics/SVG/1.1/DTD/svg11.dtd">
<svg width="100%" height="100%" viewBox="0 0 5372 1800" version="1.1" xmlns="http://www.w3.org/2000/svg" xmlns:xlink="http://www.w3.org/1999/xlink" xml:space="preserve" xmlns:serif="http://www.serif.com/" style="fill-rule:evenodd;clip-rule:evenodd;stroke-linejoin:round;stroke-miterlimit:2;">
    <g transform="matrix(0.901923,0,0,0.901923,123.405,-1423.18)">
        <g transform="matrix(1.09259,0,0,1.24914,-239.317,-3016.79)">
            <text x="459.285px" y="4058.9px" style="font-family:'Consolas', monospace;font-size:130px;fill:rgb(255,4,15);stroke:rgb(255,5,15);stroke-width:4.72px;">*</text>
            <text x="602.234px" y="4058.9px" style="font-family:'Consolas-Bold', 'Consolas', monospace;font-weight:700;font-size:130px;fill:rgb(255,4,15);stroke:rgb(255,5,15);stroke-width:4.72px;">! ARTIFICIAL AND NATURAL INTELLIGENCE</text>
            <g transform="matrix(130,0,0,130,3997.28,4211.12)">
            </g>
            <g transform="matrix(130,0,0,130,4033.02,4211.12)">
            </g>
            <text x="459.285px" y="4211.12px" style="font-family:'Consolas', monospace;font-size:130px;fill:rgb(11,145,0);">* <tspan x="637.972px " y="4211.12px ">T</tspan>his <tspan x="1031.08px " y="4211.12px ">e</tspan>ssay <tspan x="1495.67px " y="4211.12px ">e</tspan>xplores <tspan x="2174.68px " y="4211.12px ">t</tspan>he <tspan x="2496.31px " y="4211.12px ">c</tspan>omplexities <tspan x="3461.22px " y="4211.12px ">o</tspan>f <tspan x="3711.38px " y="4211.12px ">a</tspan>rtiﬁcial <tspan x="4461.86px " y="4211.12px ">i</tspan>ntelligence</text>
            <text x="459.285px" y="4363.34px" style="font-family:'Consolas', monospace;font-size:130px;fill:rgb(11,145,0);">* <tspan x="641.943px " y="4363.34px ">(</tspan>AI) <tspan x="1039.02px " y="4363.34px ">a</tspan>nd <tspan x="1364.63px " y="4363.34px ">n</tspan>atural <tspan x="1976.13px " y="4363.34px ">i</tspan>ntelligence <tspan x="2945.01px " y="4363.34px ">(</tspan>NI), <tspan x="3413.57px " y="4363.34px ">a</tspan>iming <tspan x="3953.6px " y="4363.34px ">t</tspan>o <tspan x="4207.73px " y="4363.34px ">e</tspan>lucidate <tspan x="4962.19px " y="4363.34px ">t</tspan>heir</text>
            <g transform="matrix(130,0,0,130,2174.68,4515.55)">
            </g>
            <g transform="matrix(130,0,0,130,2210.41,4515.55)">
            </g>
            <text x="459.285px" y="4515.55px" style="font-family:'Consolas', monospace;font-size:130px;fill:rgb(11,145,0);">* <tspan x="673.709px " y="4515.55px ">s</tspan>imilarities <tspan x="1674.35px " y="4515.55px ">a</tspan>nd <tspan x="2031.73px " y="4515.55px ">d</tspan>iﬀerences. <tspan x="2960.9px " y="4515.55px ">I</tspan>t <tspan x="3246.8px " y="4515.55px ">h</tspan>ighlights <tspan x="4104.49px " y="4515.55px ">A</tspan>I&apos;s <tspan x="4533.34px " y="4515.55px ">e</tspan>xponential</text>
            <text x="459.285px" y="4667.77px" style="font-family:'Consolas', monospace;font-size:130px;fill:rgb(11,145,0);">* advancements and speculates on its future capabilities, ultimately</text>
            <text x="459.285px" y="4819.98px" style="font-family:'Consolas', monospace;font-size:130px;fill:rgb(11,145,0);">* addressing the question of whether AI can be considered equivalent</text>
            <text x="459.285px" y="4972.2px" style="font-family:'Consolas', monospace;font-size:130px;fill:rgb(11,145,0);">* to natural intelligence.</text>
            <g transform="matrix(130,0,0,130,602.234,5124.42)">
            </g>
            <text x="459.285px" y="5124.42px" style="font-family:'Consolas', monospace;font-size:130px;fill:rgb(11,145,0);">*/</text>
        </g>
        <g transform="matrix(1.09259,0,0,1.24914,-395.307,-3207.89)">
            <g transform="matrix(130,0,0,130,673.709,4058.9)">
            </g>
            <text x="459.285px" y="4058.9px" style="font-family:'Consolas', monospace;font-size:130px;fill:rgb(11,145,0);">/**</text>
        </g>
    </g>
</svg>
