<?xml version="1.0" encoding="UTF-8" standalone="no"?>
<!DOCTYPE svg PUBLIC "-//W3C//DTD SVG 1.1//EN" "http://www.w3.org/Graphics/SVG/1.1/DTD/svg11.dtd">
<svg width="100%" height="100%" viewBox="0 0 5372 3000" version="1.1" xmlns="http://www.w3.org/2000/svg" xmlns:xlink="http://www.w3.org/1999/xlink" xml:space="preserve" xmlns:serif="http://www.serif.com/" style="fill-rule:evenodd;clip-rule:evenodd;stroke-linejoin:round;stroke-miterlimit:2;">
    <g transform="matrix(1,0,0,1,-16.5364,-2102.75)">
        <g>
            <g transform="matrix(1.45252,0,0,1.45252,-452.956,2227.18)">
                <g transform="matrix(738.026,0,0,479.166,386.661,534.275)">
                    <path d="M0.643,-0.182C0.643,-0.182 0.658,-0.334 0.658,-0.334C0.658,-0.334 0.466,-0.334 0.466,-0.334C0.466,-0.334 0.382,-0.182 0.382,-0.182C0.382,-0.182 0.277,-0.182 0.277,-0.182C0.414,-0.419 0.55,-0.657 0.685,-0.896C0.685,-0.896 0.815,-0.896 0.815,-0.896C0.794,-0.658 0.776,-0.42 0.76,-0.182C0.76,-0.182 0.643,-0.182 0.643,-0.182ZM0.706,-0.774C0.706,-0.774 0.529,-0.448 0.529,-0.448C0.529,-0.448 0.67,-0.448 0.67,-0.448C0.67,-0.448 0.706,-0.774 0.706,-0.774Z" style="fill-opacity:0.58;fill-rule:nonzero;"/>
                </g>
                <g transform="matrix(738.026,0,0,479.166,743.722,534.275)">
                    <path d="M0.456,-0.794C0.456,-0.794 0.485,-0.896 0.485,-0.896C0.485,-0.896 0.798,-0.896 0.798,-0.896C0.798,-0.896 0.776,-0.794 0.776,-0.794C0.776,-0.794 0.664,-0.794 0.664,-0.794C0.664,-0.794 0.606,-0.552 0.577,-0.431C0.566,-0.388 0.535,-0.259 0.546,-0.302C0.546,-0.302 0.668,-0.302 0.668,-0.302C0.668,-0.302 0.641,-0.182 0.641,-0.182C0.641,-0.182 0.284,-0.182 0.284,-0.182C0.284,-0.182 0.318,-0.302 0.318,-0.302C0.318,-0.302 0.44,-0.302 0.44,-0.302C0.482,-0.466 0.568,-0.794 0.568,-0.794C0.568,-0.794 0.456,-0.794 0.456,-0.794Z" style="fill-opacity:0.58;fill-rule:nonzero;"/>
                </g>
                <g transform="matrix(738.026,0,0,479.166,1552.31,534.275)">
                    <path d="M0.529,-0.213C0.506,-0.2 0.48,-0.189 0.455,-0.182C0.431,-0.175 0.405,-0.172 0.381,-0.172C0.345,-0.172 0.307,-0.179 0.275,-0.196C0.245,-0.213 0.22,-0.239 0.204,-0.269C0.184,-0.305 0.174,-0.346 0.169,-0.386C0.163,-0.439 0.166,-0.492 0.172,-0.544C0.178,-0.597 0.189,-0.651 0.207,-0.701C0.221,-0.741 0.24,-0.78 0.266,-0.813C0.287,-0.841 0.315,-0.865 0.345,-0.882C0.375,-0.897 0.409,-0.905 0.442,-0.905C0.453,-0.905 0.464,-0.904 0.474,-0.904C0.484,-0.903 0.494,-0.902 0.503,-0.9C0.513,-0.898 0.523,-0.896 0.532,-0.893C0.542,-0.89 0.553,-0.886 0.562,-0.881C0.562,-0.881 0.556,-0.757 0.556,-0.757C0.537,-0.769 0.516,-0.78 0.495,-0.787C0.478,-0.792 0.459,-0.795 0.441,-0.795C0.419,-0.795 0.397,-0.79 0.378,-0.778C0.359,-0.766 0.344,-0.749 0.332,-0.73C0.317,-0.706 0.307,-0.68 0.3,-0.654C0.291,-0.622 0.286,-0.588 0.282,-0.555C0.279,-0.52 0.278,-0.485 0.281,-0.45C0.283,-0.423 0.288,-0.395 0.299,-0.37C0.308,-0.35 0.323,-0.332 0.341,-0.319C0.36,-0.307 0.384,-0.302 0.407,-0.302C0.416,-0.302 0.428,-0.303 0.437,-0.306C0.449,-0.308 0.46,-0.312 0.471,-0.315C0.482,-0.319 0.494,-0.324 0.505,-0.33C0.515,-0.335 0.526,-0.341 0.536,-0.347C0.536,-0.347 0.529,-0.213 0.529,-0.213Z" style="fill-opacity:0.58;fill-rule:nonzero;"/>
                </g>
                <g transform="matrix(738.026,0,0,479.166,1956.6,534.275)">
                    <path d="M0.486,-0.558C0.488,-0.501 0.487,-0.443 0.476,-0.387C0.467,-0.345 0.454,-0.302 0.432,-0.265C0.414,-0.236 0.39,-0.209 0.36,-0.193C0.333,-0.177 0.302,-0.169 0.27,-0.169C0.199,-0.169 0.138,-0.207 0.105,-0.27C0.061,-0.355 0.057,-0.458 0.061,-0.552C0.063,-0.607 0.069,-0.663 0.083,-0.716C0.094,-0.754 0.108,-0.792 0.131,-0.825C0.148,-0.85 0.17,-0.873 0.197,-0.887C0.221,-0.9 0.249,-0.907 0.276,-0.907C0.339,-0.907 0.393,-0.875 0.425,-0.821C0.472,-0.744 0.482,-0.646 0.486,-0.558ZM0.381,-0.552C0.38,-0.612 0.377,-0.68 0.353,-0.736C0.339,-0.77 0.311,-0.795 0.273,-0.795C0.257,-0.795 0.239,-0.79 0.226,-0.78C0.212,-0.768 0.201,-0.752 0.194,-0.735C0.183,-0.712 0.178,-0.686 0.174,-0.661C0.169,-0.627 0.167,-0.592 0.166,-0.558C0.165,-0.495 0.165,-0.425 0.189,-0.365C0.203,-0.328 0.232,-0.299 0.274,-0.299C0.292,-0.299 0.311,-0.305 0.325,-0.317C0.341,-0.329 0.352,-0.348 0.359,-0.366C0.369,-0.391 0.374,-0.419 0.377,-0.446C0.381,-0.481 0.382,-0.517 0.381,-0.552Z" style="fill-opacity:0.58;fill-rule:nonzero;"/>
                </g>
                <g transform="matrix(738.026,0,0,479.166,2360.9,534.275)">
                    <path d="M0.383,-0.46C0.388,-0.419 0.39,-0.377 0.384,-0.336C0.38,-0.304 0.371,-0.271 0.354,-0.244C0.34,-0.221 0.319,-0.2 0.294,-0.188C0.268,-0.174 0.238,-0.169 0.209,-0.169C0.177,-0.169 0.143,-0.174 0.114,-0.188C0.088,-0.2 0.065,-0.219 0.048,-0.242C0.029,-0.267 0.017,-0.297 0.009,-0.327C-0.001,-0.363 -0.006,-0.4 -0.007,-0.437C-0.007,-0.437 -0.03,-0.896 -0.03,-0.896C-0.03,-0.896 0.063,-0.896 0.063,-0.896C0.063,-0.896 0.094,-0.445 0.094,-0.445C0.095,-0.423 0.098,-0.401 0.103,-0.379C0.107,-0.362 0.114,-0.344 0.123,-0.33C0.131,-0.318 0.143,-0.306 0.156,-0.299C0.169,-0.292 0.187,-0.288 0.202,-0.288C0.216,-0.288 0.233,-0.291 0.245,-0.297C0.256,-0.303 0.267,-0.315 0.272,-0.326C0.28,-0.342 0.283,-0.36 0.285,-0.377C0.287,-0.401 0.285,-0.427 0.283,-0.451C0.283,-0.451 0.237,-0.896 0.237,-0.896C0.237,-0.896 0.331,-0.896 0.331,-0.896C0.331,-0.896 0.383,-0.46 0.383,-0.46Z" style="fill-opacity:0.58;fill-rule:nonzero;"/>
                </g>
                <g transform="matrix(738.026,0,0,479.166,2765.19,534.275)">
                    <path d="M0.245,-0.182C0.245,-0.182 0.124,-0.426 0.124,-0.426C0.115,-0.445 0.102,-0.463 0.085,-0.476C0.072,-0.487 0.055,-0.493 0.038,-0.493C0.038,-0.493 0.019,-0.493 0.019,-0.493C0.019,-0.493 0.067,-0.182 0.067,-0.182C0.067,-0.182 -0.04,-0.182 -0.04,-0.182C-0.072,-0.42 -0.104,-0.658 -0.137,-0.896C-0.137,-0.896 0.007,-0.896 0.007,-0.896C0.033,-0.896 0.059,-0.893 0.083,-0.887C0.106,-0.881 0.128,-0.87 0.146,-0.856C0.166,-0.841 0.182,-0.82 0.194,-0.799C0.209,-0.772 0.218,-0.742 0.224,-0.711C0.229,-0.69 0.231,-0.666 0.23,-0.644C0.228,-0.627 0.224,-0.608 0.216,-0.592C0.209,-0.579 0.199,-0.565 0.186,-0.557C0.174,-0.548 0.158,-0.541 0.144,-0.537C0.16,-0.533 0.174,-0.52 0.185,-0.507C0.203,-0.486 0.218,-0.461 0.231,-0.436C0.231,-0.436 0.37,-0.182 0.37,-0.182C0.37,-0.182 0.245,-0.182 0.245,-0.182ZM0.125,-0.699C0.121,-0.725 0.11,-0.754 0.089,-0.771C0.068,-0.787 0.04,-0.792 0.014,-0.792C0.014,-0.792 -0.028,-0.792 -0.028,-0.792C-0.028,-0.792 0.002,-0.598 0.002,-0.598C0.002,-0.598 0.042,-0.598 0.042,-0.598C0.056,-0.598 0.07,-0.6 0.083,-0.605C0.093,-0.609 0.104,-0.616 0.111,-0.624C0.119,-0.633 0.124,-0.645 0.126,-0.656C0.129,-0.67 0.128,-0.685 0.125,-0.699Z" style="fill-opacity:0.58;fill-rule:nonzero;"/>
                </g>
                <g transform="matrix(738.026,0,0,479.166,3169.49,534.275)">
                    <path d="M0.217,-0.412C0.227,-0.378 0.233,-0.341 0.231,-0.305C0.228,-0.279 0.221,-0.251 0.205,-0.229C0.19,-0.208 0.168,-0.193 0.144,-0.184C0.116,-0.173 0.085,-0.169 0.056,-0.169C0.026,-0.169 -0.004,-0.171 -0.032,-0.176C-0.062,-0.181 -0.092,-0.189 -0.12,-0.2C-0.12,-0.2 -0.151,-0.342 -0.151,-0.342C-0.136,-0.335 -0.121,-0.33 -0.106,-0.324C-0.092,-0.319 -0.076,-0.314 -0.061,-0.31C-0.046,-0.306 -0.031,-0.303 -0.016,-0.301C-0.003,-0.299 0.012,-0.297 0.026,-0.297C0.042,-0.297 0.06,-0.299 0.075,-0.304C0.085,-0.308 0.096,-0.315 0.103,-0.323C0.11,-0.331 0.114,-0.342 0.115,-0.352C0.116,-0.364 0.114,-0.377 0.111,-0.388C0.106,-0.405 0.099,-0.421 0.087,-0.434C0.077,-0.446 0.063,-0.457 0.049,-0.466C0.034,-0.476 0.017,-0.484 0.001,-0.491C-0.017,-0.499 -0.035,-0.507 -0.053,-0.515C-0.071,-0.524 -0.09,-0.533 -0.107,-0.543C-0.125,-0.554 -0.143,-0.568 -0.158,-0.583C-0.174,-0.599 -0.188,-0.618 -0.199,-0.638C-0.212,-0.661 -0.221,-0.687 -0.227,-0.714C-0.232,-0.738 -0.234,-0.764 -0.232,-0.789C-0.23,-0.811 -0.224,-0.832 -0.212,-0.85C-0.2,-0.868 -0.182,-0.882 -0.163,-0.892C-0.138,-0.904 -0.108,-0.907 -0.081,-0.907C-0.071,-0.907 -0.06,-0.906 -0.05,-0.905C-0.039,-0.904 -0.028,-0.902 -0.017,-0.901C-0.006,-0.899 0.005,-0.897 0.015,-0.894C0.025,-0.892 0.035,-0.889 0.044,-0.886C0.044,-0.886 0.076,-0.772 0.076,-0.772C0.066,-0.776 0.056,-0.78 0.046,-0.784C0.035,-0.787 0.024,-0.79 0.013,-0.793C0.002,-0.795 -0.009,-0.797 -0.02,-0.798C-0.03,-0.8 -0.041,-0.8 -0.051,-0.8C-0.064,-0.8 -0.079,-0.799 -0.092,-0.795C-0.101,-0.792 -0.11,-0.787 -0.117,-0.78C-0.122,-0.774 -0.126,-0.765 -0.127,-0.757C-0.129,-0.747 -0.127,-0.735 -0.125,-0.726C-0.122,-0.712 -0.115,-0.699 -0.105,-0.689C-0.095,-0.678 -0.082,-0.668 -0.07,-0.661C-0.055,-0.652 -0.039,-0.644 -0.023,-0.637C-0.005,-0.63 0.013,-0.622 0.03,-0.614C0.049,-0.605 0.067,-0.595 0.085,-0.585C0.104,-0.574 0.122,-0.56 0.138,-0.545C0.155,-0.529 0.171,-0.509 0.183,-0.489C0.198,-0.465 0.209,-0.439 0.217,-0.412Z" style="fill-opacity:0.58;fill-rule:nonzero;"/>
                </g>
                <g transform="matrix(738.026,0,0,479.166,3573.78,534.275)">
                    <path d="M-0.142,-0.182C-0.215,-0.42 -0.288,-0.658 -0.362,-0.896C-0.362,-0.896 -0.063,-0.896 -0.063,-0.896C-0.063,-0.896 -0.025,-0.791 -0.025,-0.791C-0.025,-0.791 -0.233,-0.791 -0.233,-0.791C-0.233,-0.791 -0.177,-0.62 -0.177,-0.62C-0.177,-0.62 0.028,-0.62 0.028,-0.62C0.028,-0.62 0.068,-0.51 0.068,-0.51C0.068,-0.51 -0.141,-0.51 -0.141,-0.51C-0.141,-0.51 -0.074,-0.305 -0.074,-0.305C-0.074,-0.305 0.153,-0.305 0.153,-0.305C0.153,-0.305 0.198,-0.182 0.198,-0.182C0.198,-0.182 -0.142,-0.182 -0.142,-0.182Z" style="fill-opacity:0.58;fill-rule:nonzero;"/>
                </g>
                <g transform="matrix(738.026,0,0,479.166,371.46,912.926)">
                    <path d="M0.595,-0.517C0.582,-0.474 0.565,-0.431 0.542,-0.392C0.521,-0.355 0.495,-0.32 0.464,-0.29C0.434,-0.262 0.399,-0.239 0.362,-0.223C0.327,-0.207 0.281,-0.205 0.243,-0.205C0.243,-0.205 0.182,-0.205 0.182,-0.205C0.182,-0.205 0.178,-0 0.178,-0C0.178,-0 0.056,-0 0.056,-0C0.025,-0.265 0.18,-0.538 0.268,-0.783C0.268,-0.783 0.439,-0.783 0.439,-0.783C0.471,-0.783 0.504,-0.779 0.534,-0.766C0.557,-0.755 0.578,-0.738 0.592,-0.715C0.606,-0.691 0.612,-0.661 0.613,-0.632C0.614,-0.594 0.606,-0.554 0.595,-0.517ZM0.471,-0.506C0.477,-0.526 0.482,-0.547 0.483,-0.568C0.484,-0.583 0.481,-0.601 0.475,-0.615C0.469,-0.627 0.457,-0.638 0.445,-0.644C0.43,-0.652 0.41,-0.655 0.394,-0.655C0.394,-0.655 0.335,-0.655 0.335,-0.655C0.335,-0.655 0.227,-0.339 0.227,-0.339C0.227,-0.339 0.293,-0.339 0.293,-0.339C0.312,-0.339 0.333,-0.343 0.351,-0.351C0.369,-0.359 0.387,-0.371 0.401,-0.385C0.417,-0.4 0.431,-0.419 0.442,-0.438C0.454,-0.459 0.464,-0.483 0.471,-0.506Z" style="fill-opacity:0.58;fill-rule:nonzero;"/>
                </g>
                <g transform="matrix(738.026,0,0,479.166,831.106,912.926)">
                    <path d="M0.379,-0C0.379,-0 0.292,-0.205 0.292,-0.205C0.287,-0.224 0.281,-0.246 0.269,-0.261C0.257,-0.275 0.239,-0.282 0.221,-0.282C0.221,-0.282 0.198,-0.282 0.198,-0.282C0.198,-0.282 0.177,-0 0.177,-0C0.177,-0 0.056,-0 0.056,-0C0.033,-0.263 0.145,-0.531 0.212,-0.783C0.212,-0.783 0.382,-0.783 0.382,-0.783C0.41,-0.783 0.44,-0.78 0.467,-0.772C0.489,-0.765 0.511,-0.751 0.526,-0.733C0.542,-0.713 0.551,-0.687 0.554,-0.662C0.559,-0.626 0.555,-0.589 0.548,-0.553C0.542,-0.525 0.533,-0.495 0.521,-0.469C0.51,-0.446 0.496,-0.424 0.48,-0.405C0.465,-0.388 0.447,-0.372 0.427,-0.361C0.409,-0.35 0.388,-0.341 0.367,-0.337C0.384,-0.331 0.395,-0.315 0.402,-0.3C0.413,-0.272 0.414,-0.242 0.422,-0.214C0.422,-0.214 0.521,-0 0.521,-0C0.521,-0 0.379,-0 0.379,-0ZM0.425,-0.538C0.431,-0.565 0.435,-0.603 0.416,-0.627C0.398,-0.649 0.365,-0.654 0.339,-0.654C0.339,-0.654 0.29,-0.654 0.29,-0.654C0.29,-0.654 0.23,-0.412 0.23,-0.412C0.23,-0.412 0.278,-0.412 0.278,-0.412C0.294,-0.412 0.313,-0.415 0.328,-0.42C0.344,-0.426 0.359,-0.434 0.372,-0.445C0.384,-0.455 0.396,-0.47 0.404,-0.484C0.414,-0.5 0.421,-0.519 0.425,-0.538Z" style="fill-opacity:0.58;fill-rule:nonzero;"/>
                </g>
                <g transform="matrix(738.026,0,0,479.166,1290.75,912.926)">
                    <path d="M0.546,-0.363C0.539,-0.298 0.53,-0.233 0.508,-0.172C0.494,-0.135 0.476,-0.098 0.451,-0.069C0.429,-0.043 0.401,-0.021 0.369,-0.008C0.337,0.005 0.302,0.011 0.268,0.011C0.194,0.011 0.121,-0.014 0.074,-0.073C0.008,-0.156 0.024,-0.258 0.042,-0.354C0.054,-0.424 0.07,-0.493 0.097,-0.558C0.116,-0.606 0.14,-0.654 0.172,-0.695C0.196,-0.725 0.226,-0.754 0.261,-0.772C0.29,-0.787 0.324,-0.797 0.357,-0.797C0.431,-0.797 0.489,-0.757 0.518,-0.69C0.562,-0.59 0.556,-0.469 0.546,-0.363ZM0.42,-0.354C0.429,-0.428 0.438,-0.511 0.419,-0.584C0.408,-0.625 0.38,-0.657 0.335,-0.657C0.314,-0.657 0.293,-0.65 0.277,-0.638C0.257,-0.624 0.242,-0.603 0.23,-0.583C0.215,-0.554 0.203,-0.522 0.194,-0.491C0.182,-0.449 0.174,-0.405 0.167,-0.363C0.157,-0.298 0.138,-0.215 0.169,-0.153C0.188,-0.115 0.227,-0.097 0.268,-0.097C0.289,-0.097 0.31,-0.102 0.328,-0.112C0.345,-0.122 0.359,-0.137 0.369,-0.154C0.382,-0.175 0.392,-0.2 0.398,-0.223C0.408,-0.266 0.415,-0.31 0.42,-0.354Z" style="fill-opacity:0.58;fill-rule:nonzero;"/>
                </g>
                <g transform="matrix(738.026,0,0,479.166,1750.4,912.926)">
                    <path d="M0.441,-0.191C0.441,-0.163 0.437,-0.135 0.427,-0.109C0.418,-0.086 0.403,-0.063 0.385,-0.046C0.366,-0.027 0.342,-0.014 0.317,-0.005C0.287,0.006 0.255,0.01 0.223,0.01C0.198,0.01 0.171,0.007 0.146,0C0.124,-0.005 0.102,-0.013 0.082,-0.023C0.082,-0.023 0.081,-0.139 0.081,-0.139C0.089,-0.132 0.099,-0.126 0.109,-0.12C0.12,-0.115 0.133,-0.109 0.144,-0.105C0.157,-0.101 0.17,-0.097 0.183,-0.095C0.196,-0.092 0.209,-0.091 0.222,-0.091C0.233,-0.091 0.245,-0.093 0.255,-0.097C0.267,-0.101 0.278,-0.108 0.287,-0.116C0.296,-0.126 0.304,-0.14 0.309,-0.152C0.316,-0.169 0.319,-0.189 0.319,-0.207C0.319,-0.207 0.335,-0.655 0.335,-0.655C0.335,-0.655 0.119,-0.655 0.119,-0.655C0.119,-0.655 0.128,-0.783 0.128,-0.783C0.128,-0.783 0.451,-0.783 0.451,-0.783C0.448,-0.586 0.441,-0.191 0.441,-0.191Z" style="fill-opacity:0.58;fill-rule:nonzero;"/>
                </g>
                <g transform="matrix(738.026,0,0,479.166,2210.04,912.926)">
                    <path d="M0.091,-0C0.093,-0.261 0.082,-0.522 0.076,-0.783C0.076,-0.783 0.427,-0.783 0.427,-0.783C0.427,-0.783 0.438,-0.652 0.438,-0.652C0.438,-0.652 0.193,-0.652 0.193,-0.652C0.193,-0.652 0.202,-0.44 0.202,-0.44C0.202,-0.44 0.444,-0.44 0.444,-0.44C0.444,-0.44 0.455,-0.303 0.455,-0.303C0.455,-0.303 0.208,-0.303 0.208,-0.303C0.208,-0.303 0.214,-0.102 0.214,-0.102C0.214,-0.102 0.478,-0.102 0.478,-0.102C0.478,-0.102 0.476,-0 0.476,-0C0.476,-0 0.091,-0 0.091,-0Z" style="fill-opacity:0.58;fill-rule:nonzero;"/>
                </g>
                <g transform="matrix(738.026,0,0,479.166,2669.69,912.926)">
                    <path d="M0.497,-0.025C0.47,-0.014 0.441,-0.006 0.412,0C0.385,0.006 0.357,0.009 0.329,0.009C0.288,0.009 0.246,0.003 0.208,-0.012C0.174,-0.025 0.144,-0.045 0.12,-0.072C0.094,-0.1 0.076,-0.136 0.063,-0.171C0.042,-0.227 0.033,-0.286 0.026,-0.345C0.019,-0.41 0.016,-0.476 0.023,-0.541C0.029,-0.588 0.04,-0.637 0.062,-0.68C0.079,-0.714 0.104,-0.745 0.136,-0.765C0.167,-0.785 0.206,-0.794 0.243,-0.794C0.256,-0.794 0.269,-0.794 0.281,-0.793C0.293,-0.792 0.305,-0.791 0.317,-0.788C0.328,-0.786 0.341,-0.783 0.352,-0.779C0.365,-0.775 0.379,-0.77 0.391,-0.765C0.391,-0.765 0.419,-0.61 0.419,-0.61C0.394,-0.625 0.367,-0.639 0.339,-0.647C0.318,-0.653 0.295,-0.658 0.273,-0.658C0.249,-0.658 0.223,-0.652 0.204,-0.636C0.185,-0.621 0.171,-0.599 0.163,-0.576C0.152,-0.546 0.148,-0.513 0.147,-0.481C0.145,-0.441 0.148,-0.399 0.154,-0.359C0.159,-0.315 0.168,-0.271 0.181,-0.229C0.189,-0.203 0.202,-0.178 0.219,-0.157C0.233,-0.139 0.253,-0.124 0.274,-0.114C0.298,-0.103 0.326,-0.099 0.352,-0.099C0.363,-0.099 0.376,-0.101 0.387,-0.103C0.4,-0.105 0.413,-0.108 0.426,-0.111C0.439,-0.114 0.452,-0.118 0.464,-0.123C0.476,-0.127 0.488,-0.132 0.499,-0.137C0.499,-0.137 0.497,-0.025 0.497,-0.025Z" style="fill-opacity:0.58;fill-rule:nonzero;"/>
                </g>
                <g transform="matrix(738.026,0,0,479.166,3129.33,912.926)">
                    <path d="M0.227,-0.654C0.281,-0.439 0.362,-0.224 0.343,-0C0.343,-0 0.22,-0 0.22,-0C0.237,-0.223 0.162,-0.439 0.112,-0.654C0.112,-0.654 -0.052,-0.654 -0.052,-0.654C-0.052,-0.654 -0.078,-0.783 -0.078,-0.783C-0.078,-0.783 0.354,-0.783 0.354,-0.783C0.354,-0.783 0.39,-0.654 0.39,-0.654C0.39,-0.654 0.227,-0.654 0.227,-0.654Z" style="fill-opacity:0.58;fill-rule:nonzero;"/>
                </g>
                <g transform="matrix(738.026,0,0,479.166,3588.98,912.926)">
                    <path d="M0.507,-0.193C0.514,-0.163 0.512,-0.13 0.497,-0.102C0.484,-0.077 0.463,-0.055 0.439,-0.039C0.413,-0.021 0.382,-0.009 0.352,-0.001C0.317,0.007 0.281,0.011 0.245,0.011C0.213,0.011 0.181,0.009 0.149,0.005C0.118,0.001 0.087,-0.005 0.057,-0.014C0.057,-0.014 0.063,-0.133 0.063,-0.133C0.078,-0.128 0.094,-0.123 0.11,-0.118C0.126,-0.114 0.143,-0.11 0.16,-0.106C0.176,-0.103 0.193,-0.1 0.209,-0.098C0.225,-0.097 0.241,-0.095 0.257,-0.095C0.276,-0.095 0.297,-0.097 0.315,-0.101C0.329,-0.105 0.343,-0.11 0.355,-0.117C0.363,-0.123 0.372,-0.132 0.376,-0.142C0.38,-0.151 0.38,-0.163 0.379,-0.173C0.376,-0.188 0.367,-0.202 0.356,-0.212C0.341,-0.225 0.325,-0.238 0.308,-0.248C0.289,-0.26 0.268,-0.271 0.248,-0.279C0.225,-0.289 0.203,-0.299 0.181,-0.309C0.158,-0.32 0.136,-0.331 0.114,-0.344C0.091,-0.358 0.068,-0.375 0.049,-0.393C0.028,-0.413 0.009,-0.437 -0.006,-0.461C-0.025,-0.49 -0.038,-0.523 -0.048,-0.556C-0.057,-0.586 -0.064,-0.618 -0.064,-0.65C-0.065,-0.676 -0.06,-0.703 -0.048,-0.727C-0.037,-0.749 -0.017,-0.766 0.005,-0.778C0.033,-0.793 0.068,-0.797 0.099,-0.797C0.112,-0.797 0.124,-0.796 0.136,-0.795C0.15,-0.793 0.163,-0.791 0.176,-0.789C0.189,-0.787 0.202,-0.784 0.214,-0.781C0.226,-0.778 0.238,-0.775 0.249,-0.771C0.249,-0.771 0.302,-0.629 0.302,-0.629C0.29,-0.634 0.277,-0.639 0.265,-0.643C0.252,-0.647 0.238,-0.651 0.225,-0.654C0.212,-0.657 0.198,-0.66 0.185,-0.662C0.173,-0.663 0.16,-0.664 0.149,-0.664C0.133,-0.664 0.115,-0.663 0.101,-0.657C0.091,-0.654 0.08,-0.647 0.073,-0.639C0.067,-0.631 0.064,-0.619 0.063,-0.61C0.063,-0.597 0.066,-0.583 0.07,-0.571C0.076,-0.554 0.085,-0.538 0.098,-0.525C0.111,-0.511 0.127,-0.499 0.144,-0.49C0.162,-0.479 0.182,-0.469 0.202,-0.461C0.224,-0.451 0.246,-0.442 0.267,-0.431C0.291,-0.421 0.314,-0.409 0.336,-0.396C0.36,-0.382 0.383,-0.365 0.403,-0.346C0.426,-0.326 0.446,-0.302 0.464,-0.277C0.481,-0.252 0.499,-0.223 0.507,-0.193Z" style="fill-opacity:0.58;fill-rule:nonzero;"/>
                </g>
            </g>
            <g transform="matrix(1.45252,0,0,1.45252,-452.956,2122.18)">
                <g transform="matrix(738.026,0,0,479.166,386.661,534.275)">
                    <path d="M0.697,-0.212C0.697,-0.212 0.712,-0.357 0.712,-0.357C0.712,-0.357 0.526,-0.357 0.526,-0.357C0.526,-0.357 0.445,-0.212 0.445,-0.212C0.445,-0.212 0.343,-0.212 0.343,-0.212C0.475,-0.439 0.606,-0.667 0.735,-0.895C0.735,-0.895 0.862,-0.895 0.862,-0.895C0.843,-0.668 0.826,-0.44 0.811,-0.212C0.811,-0.212 0.697,-0.212 0.697,-0.212ZM0.757,-0.779C0.757,-0.779 0.587,-0.466 0.587,-0.466C0.587,-0.466 0.723,-0.466 0.723,-0.466C0.723,-0.466 0.757,-0.779 0.757,-0.779Z" style="fill:white;fill-rule:nonzero;stroke:black;stroke-width:0.02px;"/>
                </g>
                <g transform="matrix(738.026,0,0,479.166,743.722,534.275)">
                    <path d="M0.5,-0.798C0.5,-0.798 0.527,-0.895 0.527,-0.895C0.527,-0.895 0.831,-0.895 0.831,-0.895C0.831,-0.895 0.809,-0.798 0.809,-0.798C0.809,-0.798 0.702,-0.798 0.702,-0.798C0.702,-0.798 0.646,-0.566 0.618,-0.45C0.608,-0.409 0.578,-0.285 0.588,-0.326C0.588,-0.326 0.706,-0.326 0.706,-0.326C0.706,-0.326 0.681,-0.212 0.681,-0.212C0.681,-0.212 0.335,-0.212 0.335,-0.212C0.335,-0.212 0.367,-0.326 0.367,-0.326C0.367,-0.326 0.485,-0.326 0.485,-0.326C0.526,-0.484 0.608,-0.798 0.608,-0.798C0.608,-0.798 0.5,-0.798 0.5,-0.798Z" style="fill:white;fill-rule:nonzero;stroke:black;stroke-width:0.02px;"/>
                </g>
                <g transform="matrix(738.026,0,0,479.166,1552.31,534.275)">
                    <path d="M0.538,-0.241C0.515,-0.229 0.491,-0.218 0.466,-0.211C0.443,-0.205 0.418,-0.202 0.394,-0.202C0.359,-0.202 0.323,-0.208 0.292,-0.225C0.263,-0.241 0.239,-0.267 0.223,-0.295C0.204,-0.329 0.194,-0.369 0.189,-0.408C0.183,-0.457 0.186,-0.509 0.191,-0.559C0.198,-0.609 0.208,-0.661 0.225,-0.709C0.239,-0.747 0.258,-0.785 0.283,-0.817C0.303,-0.843 0.329,-0.866 0.359,-0.882C0.389,-0.897 0.42,-0.9 0.453,-0.9C0.463,-0.9 0.474,-0.9 0.484,-0.9C0.493,-0.899 0.503,-0.899 0.512,-0.898C0.522,-0.897 0.531,-0.895 0.54,-0.893C0.55,-0.89 0.56,-0.886 0.57,-0.882C0.57,-0.882 0.564,-0.763 0.564,-0.763C0.546,-0.774 0.525,-0.785 0.504,-0.791C0.488,-0.796 0.47,-0.799 0.452,-0.799C0.431,-0.799 0.409,-0.794 0.391,-0.783C0.373,-0.771 0.358,-0.754 0.346,-0.736C0.332,-0.714 0.323,-0.689 0.316,-0.664C0.307,-0.633 0.302,-0.601 0.299,-0.569C0.295,-0.536 0.294,-0.502 0.297,-0.469C0.299,-0.443 0.304,-0.416 0.315,-0.392C0.324,-0.373 0.338,-0.355 0.356,-0.343C0.374,-0.331 0.398,-0.326 0.419,-0.326C0.429,-0.326 0.44,-0.328 0.449,-0.33C0.46,-0.332 0.471,-0.336 0.482,-0.339C0.492,-0.343 0.504,-0.348 0.514,-0.353C0.524,-0.358 0.535,-0.364 0.544,-0.37C0.544,-0.37 0.538,-0.241 0.538,-0.241Z" style="fill:white;fill-rule:nonzero;stroke:black;stroke-width:0.02px;"/>
                </g>
                <g transform="matrix(738.026,0,0,479.166,1956.6,534.275)">
                    <path d="M0.479,-0.572C0.482,-0.518 0.48,-0.462 0.469,-0.408C0.461,-0.368 0.448,-0.327 0.427,-0.291C0.409,-0.263 0.386,-0.238 0.358,-0.222C0.331,-0.207 0.301,-0.199 0.27,-0.199C0.201,-0.199 0.143,-0.235 0.11,-0.296C0.067,-0.377 0.064,-0.476 0.067,-0.566C0.069,-0.618 0.075,-0.672 0.089,-0.723C0.099,-0.759 0.113,-0.796 0.135,-0.828C0.151,-0.851 0.173,-0.873 0.199,-0.887C0.223,-0.899 0.25,-0.901 0.276,-0.901C0.339,-0.901 0.387,-0.879 0.421,-0.824C0.466,-0.75 0.476,-0.657 0.479,-0.572ZM0.378,-0.566C0.376,-0.624 0.374,-0.688 0.35,-0.742C0.336,-0.775 0.31,-0.799 0.273,-0.799C0.257,-0.799 0.24,-0.794 0.228,-0.784C0.213,-0.773 0.203,-0.758 0.196,-0.741C0.186,-0.719 0.18,-0.695 0.177,-0.671C0.172,-0.638 0.17,-0.605 0.169,-0.572C0.168,-0.512 0.169,-0.444 0.191,-0.387C0.205,-0.351 0.233,-0.324 0.274,-0.324C0.291,-0.324 0.309,-0.329 0.323,-0.341C0.338,-0.353 0.349,-0.37 0.356,-0.388C0.366,-0.412 0.371,-0.439 0.374,-0.464C0.378,-0.498 0.378,-0.532 0.378,-0.566Z" style="fill:white;fill-rule:nonzero;stroke:black;stroke-width:0.02px;"/>
                </g>
                <g transform="matrix(738.026,0,0,479.166,2360.9,534.275)">
                    <path d="M0.363,-0.478C0.368,-0.439 0.369,-0.398 0.364,-0.359C0.359,-0.328 0.35,-0.297 0.334,-0.271C0.32,-0.248 0.3,-0.229 0.276,-0.217C0.251,-0.204 0.222,-0.199 0.193,-0.199C0.162,-0.199 0.13,-0.204 0.101,-0.217C0.076,-0.229 0.054,-0.247 0.037,-0.269C0.02,-0.293 0.007,-0.322 -0,-0.351C-0.009,-0.385 -0.014,-0.421 -0.016,-0.456C-0.016,-0.456 -0.038,-0.895 -0.038,-0.895C-0.038,-0.895 0.053,-0.895 0.053,-0.895C0.053,-0.895 0.082,-0.464 0.082,-0.464C0.084,-0.443 0.086,-0.421 0.091,-0.401C0.095,-0.385 0.101,-0.367 0.111,-0.353C0.118,-0.342 0.13,-0.33 0.142,-0.324C0.155,-0.317 0.173,-0.314 0.187,-0.314C0.201,-0.314 0.217,-0.316 0.229,-0.322C0.24,-0.328 0.25,-0.339 0.255,-0.35C0.262,-0.364 0.266,-0.383 0.267,-0.399C0.269,-0.422 0.268,-0.446 0.266,-0.469C0.266,-0.469 0.222,-0.895 0.222,-0.895C0.222,-0.895 0.312,-0.895 0.312,-0.895C0.312,-0.895 0.363,-0.478 0.363,-0.478Z" style="fill:white;fill-rule:nonzero;stroke:black;stroke-width:0.02px;"/>
                </g>
                <g transform="matrix(738.026,0,0,479.166,2765.19,534.275)">
                    <path d="M0.212,-0.212C0.212,-0.212 0.095,-0.445 0.095,-0.445C0.086,-0.463 0.074,-0.481 0.057,-0.494C0.044,-0.504 0.028,-0.51 0.011,-0.51C0.011,-0.51 -0.007,-0.51 -0.007,-0.51C-0.007,-0.51 0.039,-0.212 0.039,-0.212C0.039,-0.212 -0.064,-0.212 -0.064,-0.212C-0.095,-0.44 -0.126,-0.668 -0.157,-0.895C-0.157,-0.895 -0.017,-0.895 -0.017,-0.895C0.007,-0.895 0.033,-0.893 0.056,-0.887C0.078,-0.881 0.099,-0.871 0.117,-0.857C0.136,-0.843 0.152,-0.823 0.163,-0.803C0.178,-0.777 0.187,-0.748 0.193,-0.719C0.197,-0.698 0.199,-0.675 0.197,-0.654C0.196,-0.638 0.192,-0.619 0.184,-0.605C0.178,-0.592 0.167,-0.579 0.156,-0.571C0.144,-0.562 0.128,-0.555 0.114,-0.552C0.13,-0.548 0.143,-0.536 0.154,-0.524C0.171,-0.503 0.186,-0.479 0.199,-0.455C0.199,-0.455 0.333,-0.212 0.333,-0.212C0.333,-0.212 0.212,-0.212 0.212,-0.212ZM0.097,-0.707C0.092,-0.732 0.082,-0.76 0.061,-0.776C0.041,-0.791 0.014,-0.796 -0.011,-0.796C-0.011,-0.796 -0.052,-0.796 -0.052,-0.796C-0.052,-0.796 -0.023,-0.611 -0.023,-0.611C-0.023,-0.611 0.016,-0.611 0.016,-0.611C0.029,-0.611 0.043,-0.612 0.055,-0.617C0.065,-0.62 0.076,-0.627 0.083,-0.635C0.09,-0.643 0.095,-0.655 0.097,-0.666C0.1,-0.679 0.099,-0.694 0.097,-0.707Z" style="fill:white;fill-rule:nonzero;stroke:black;stroke-width:0.02px;"/>
                </g>
                <g transform="matrix(738.026,0,0,479.166,3169.49,534.275)">
                    <path d="M0.168,-0.432C0.177,-0.399 0.184,-0.364 0.181,-0.33C0.179,-0.304 0.171,-0.277 0.156,-0.257C0.141,-0.237 0.12,-0.222 0.097,-0.213C0.07,-0.203 0.04,-0.199 0.011,-0.199C-0.017,-0.199 -0.046,-0.201 -0.074,-0.206C-0.103,-0.21 -0.132,-0.218 -0.159,-0.229C-0.159,-0.229 -0.189,-0.365 -0.189,-0.365C-0.175,-0.359 -0.16,-0.353 -0.146,-0.348C-0.131,-0.343 -0.116,-0.338 -0.101,-0.334C-0.087,-0.331 -0.072,-0.328 -0.058,-0.325C-0.045,-0.323 -0.031,-0.322 -0.018,-0.322C-0.002,-0.322 0.015,-0.323 0.03,-0.329C0.04,-0.332 0.051,-0.339 0.058,-0.347C0.064,-0.354 0.068,-0.365 0.069,-0.374C0.07,-0.386 0.068,-0.398 0.065,-0.409C0.061,-0.425 0.053,-0.441 0.042,-0.453C0.032,-0.465 0.019,-0.476 0.005,-0.484C-0.009,-0.493 -0.025,-0.501 -0.041,-0.508C-0.059,-0.515 -0.076,-0.523 -0.093,-0.531C-0.111,-0.539 -0.129,-0.548 -0.146,-0.558C-0.164,-0.568 -0.18,-0.581 -0.195,-0.596C-0.21,-0.611 -0.224,-0.629 -0.235,-0.648C-0.247,-0.671 -0.256,-0.696 -0.261,-0.721C-0.266,-0.745 -0.269,-0.769 -0.267,-0.793C-0.265,-0.814 -0.258,-0.835 -0.247,-0.852C-0.235,-0.869 -0.218,-0.883 -0.199,-0.891C-0.175,-0.903 -0.143,-0.901 -0.117,-0.901C-0.107,-0.901 -0.097,-0.901 -0.087,-0.9C-0.077,-0.9 -0.067,-0.899 -0.056,-0.898C-0.046,-0.897 -0.036,-0.896 -0.026,-0.894C-0.017,-0.892 -0.007,-0.889 0.002,-0.886C0.002,-0.886 0.033,-0.777 0.033,-0.777C0.023,-0.781 0.013,-0.785 0.003,-0.788C-0.007,-0.791 -0.018,-0.794 -0.029,-0.797C-0.039,-0.799 -0.05,-0.801 -0.061,-0.802C-0.07,-0.803 -0.081,-0.804 -0.09,-0.804C-0.103,-0.804 -0.118,-0.803 -0.13,-0.799C-0.139,-0.796 -0.148,-0.791 -0.155,-0.785C-0.16,-0.779 -0.164,-0.77 -0.165,-0.762C-0.166,-0.753 -0.165,-0.742 -0.163,-0.732C-0.16,-0.719 -0.153,-0.707 -0.144,-0.697C-0.134,-0.687 -0.122,-0.677 -0.109,-0.67C-0.095,-0.662 -0.079,-0.654 -0.064,-0.648C-0.047,-0.641 -0.029,-0.633 -0.012,-0.625C0.006,-0.617 0.024,-0.608 0.041,-0.598C0.059,-0.587 0.076,-0.574 0.092,-0.56C0.108,-0.544 0.123,-0.525 0.136,-0.506C0.15,-0.483 0.16,-0.458 0.168,-0.432Z" style="fill:white;fill-rule:nonzero;stroke:black;stroke-width:0.02px;"/>
                </g>
                <g transform="matrix(738.026,0,0,479.166,3573.78,534.275)">
                    <path d="M-0.197,-0.212C-0.268,-0.44 -0.338,-0.668 -0.408,-0.895C-0.408,-0.895 -0.119,-0.895 -0.119,-0.895C-0.119,-0.895 -0.082,-0.795 -0.082,-0.795C-0.082,-0.795 -0.283,-0.795 -0.283,-0.795C-0.283,-0.795 -0.23,-0.632 -0.23,-0.632C-0.23,-0.632 -0.032,-0.632 -0.032,-0.632C-0.032,-0.632 0.007,-0.526 0.007,-0.526C0.007,-0.526 -0.195,-0.526 -0.195,-0.526C-0.195,-0.526 -0.131,-0.329 -0.131,-0.329C-0.131,-0.329 0.089,-0.329 0.089,-0.329C0.089,-0.329 0.132,-0.212 0.132,-0.212C0.132,-0.212 -0.197,-0.212 -0.197,-0.212Z" style="fill:white;fill-rule:nonzero;stroke:black;stroke-width:0.02px;"/>
                </g>
                <g transform="matrix(738.026,0,0,479.166,371.46,912.926)">
                    <path d="M0.653,-0.565C0.641,-0.523 0.624,-0.483 0.602,-0.445C0.582,-0.409 0.556,-0.376 0.526,-0.347C0.498,-0.32 0.464,-0.298 0.428,-0.282C0.391,-0.267 0.35,-0.259 0.311,-0.259C0.311,-0.259 0.251,-0.259 0.251,-0.259C0.251,-0.259 0.172,-0 0.172,-0C0.172,-0 0.05,-0 0.05,-0C0.079,-0.268 0.244,-0.566 0.335,-0.82C0.335,-0.82 0.501,-0.82 0.501,-0.82C0.532,-0.82 0.564,-0.817 0.593,-0.804C0.616,-0.794 0.636,-0.777 0.649,-0.755C0.664,-0.732 0.669,-0.703 0.67,-0.676C0.671,-0.639 0.663,-0.601 0.653,-0.565ZM0.533,-0.555C0.539,-0.573 0.544,-0.594 0.544,-0.614C0.545,-0.628 0.543,-0.646 0.536,-0.659C0.531,-0.67 0.519,-0.681 0.508,-0.687C0.493,-0.695 0.474,-0.697 0.458,-0.697C0.458,-0.697 0.401,-0.697 0.401,-0.697C0.401,-0.697 0.297,-0.394 0.297,-0.394C0.297,-0.394 0.361,-0.394 0.361,-0.394C0.379,-0.394 0.4,-0.398 0.417,-0.405C0.435,-0.413 0.452,-0.425 0.466,-0.438C0.481,-0.453 0.494,-0.471 0.505,-0.489C0.517,-0.509 0.526,-0.532 0.533,-0.555Z" style="fill:white;fill-rule:nonzero;stroke:black;stroke-width:0.02px;"/>
                </g>
                <g transform="matrix(738.026,0,0,479.166,831.106,912.926)">
                    <path d="M0.375,-0C0.375,-0 0.338,-0.259 0.338,-0.259C0.337,-0.28 0.332,-0.303 0.318,-0.319C0.306,-0.333 0.289,-0.339 0.271,-0.339C0.271,-0.339 0.249,-0.339 0.249,-0.339C0.249,-0.339 0.172,-0 0.172,-0C0.172,-0 0.051,-0 0.051,-0C0.073,-0.27 0.192,-0.558 0.261,-0.82C0.261,-0.82 0.426,-0.82 0.426,-0.82C0.453,-0.82 0.482,-0.817 0.508,-0.809C0.53,-0.803 0.551,-0.79 0.566,-0.772C0.581,-0.753 0.59,-0.729 0.593,-0.704C0.598,-0.67 0.594,-0.634 0.587,-0.6C0.582,-0.572 0.573,-0.544 0.561,-0.519C0.551,-0.497 0.538,-0.475 0.522,-0.457C0.508,-0.441 0.49,-0.426 0.471,-0.415C0.454,-0.404 0.433,-0.396 0.413,-0.392C0.429,-0.387 0.44,-0.371 0.446,-0.356C0.457,-0.33 0.462,-0.299 0.466,-0.271C0.466,-0.271 0.517,-0 0.517,-0C0.517,-0 0.375,-0 0.375,-0ZM0.468,-0.585C0.474,-0.611 0.478,-0.648 0.46,-0.671C0.443,-0.692 0.411,-0.696 0.385,-0.696C0.385,-0.696 0.337,-0.696 0.337,-0.696C0.337,-0.696 0.28,-0.465 0.28,-0.465C0.28,-0.465 0.326,-0.465 0.326,-0.465C0.342,-0.465 0.36,-0.467 0.375,-0.472C0.39,-0.477 0.405,-0.486 0.417,-0.495C0.429,-0.506 0.44,-0.519 0.449,-0.533C0.458,-0.549 0.464,-0.567 0.468,-0.585Z" style="fill:white;fill-rule:nonzero;stroke:black;stroke-width:0.02px;"/>
                </g>
                <g transform="matrix(738.026,0,0,479.166,1290.75,912.926)">
                    <path d="M0.566,-0.417C0.559,-0.348 0.547,-0.279 0.526,-0.213C0.511,-0.167 0.49,-0.104 0.456,-0.068C0.431,-0.043 0.401,-0.022 0.368,-0.009C0.335,0.004 0.3,0.011 0.265,0.011C0.205,0.011 0.106,-0.008 0.082,-0.073C0.044,-0.178 0.059,-0.302 0.078,-0.409C0.089,-0.475 0.105,-0.542 0.131,-0.605C0.149,-0.651 0.172,-0.697 0.203,-0.735C0.227,-0.765 0.256,-0.792 0.289,-0.81C0.318,-0.825 0.35,-0.833 0.383,-0.833C0.454,-0.833 0.51,-0.795 0.539,-0.731C0.581,-0.635 0.575,-0.518 0.566,-0.417ZM0.444,-0.409C0.453,-0.48 0.461,-0.559 0.442,-0.629C0.432,-0.669 0.404,-0.699 0.361,-0.699C0.341,-0.699 0.321,-0.693 0.305,-0.681C0.286,-0.668 0.272,-0.648 0.26,-0.628C0.245,-0.601 0.234,-0.57 0.225,-0.54C0.214,-0.499 0.206,-0.458 0.199,-0.417C0.188,-0.343 0.176,-0.26 0.193,-0.187C0.204,-0.143 0.233,-0.108 0.28,-0.108C0.302,-0.108 0.324,-0.116 0.342,-0.129C0.362,-0.144 0.377,-0.166 0.389,-0.188C0.404,-0.217 0.415,-0.25 0.423,-0.283C0.433,-0.324 0.439,-0.367 0.444,-0.409Z" style="fill:white;fill-rule:nonzero;stroke:black;stroke-width:0.02px;"/>
                </g>
                <g transform="matrix(738.026,0,0,479.166,1750.4,912.926)">
                    <path d="M0.445,-0.239C0.444,-0.201 0.439,-0.162 0.429,-0.125C0.42,-0.095 0.409,-0.067 0.386,-0.046C0.366,-0.027 0.342,-0.014 0.317,-0.005C0.287,0.006 0.254,0.01 0.222,0.01C0.196,0.01 0.17,0.006 0.145,0C0.124,-0.005 0.101,-0.013 0.082,-0.023C0.082,-0.023 0.091,-0.167 0.091,-0.167C0.098,-0.158 0.108,-0.149 0.117,-0.141C0.127,-0.133 0.139,-0.125 0.15,-0.119C0.162,-0.113 0.175,-0.108 0.187,-0.105C0.2,-0.101 0.213,-0.099 0.226,-0.099C0.237,-0.099 0.249,-0.103 0.259,-0.108C0.271,-0.114 0.283,-0.124 0.291,-0.135C0.302,-0.15 0.31,-0.168 0.315,-0.186C0.323,-0.21 0.326,-0.236 0.326,-0.262C0.326,-0.262 0.342,-0.698 0.342,-0.698C0.342,-0.698 0.133,-0.698 0.133,-0.698C0.133,-0.698 0.141,-0.82 0.141,-0.82C0.141,-0.82 0.454,-0.82 0.454,-0.82C0.452,-0.691 0.45,-0.562 0.448,-0.433C0.447,-0.368 0.444,-0.175 0.445,-0.239Z" style="fill:white;fill-rule:nonzero;stroke:black;stroke-width:0.02px;"/>
                </g>
                <g transform="matrix(738.026,0,0,479.166,2210.04,912.926)">
                    <path d="M0.091,-0C0.089,-0.274 0.078,-0.547 0.071,-0.82C0.071,-0.82 0.411,-0.82 0.411,-0.82C0.411,-0.82 0.422,-0.695 0.422,-0.695C0.422,-0.695 0.184,-0.695 0.184,-0.695C0.184,-0.695 0.193,-0.491 0.193,-0.491C0.193,-0.491 0.427,-0.491 0.427,-0.491C0.427,-0.491 0.438,-0.359 0.438,-0.359C0.438,-0.359 0.199,-0.359 0.199,-0.359C0.199,-0.359 0.21,-0.115 0.21,-0.115C0.21,-0.115 0.47,-0.115 0.47,-0.115C0.47,-0.115 0.478,-0 0.478,-0C0.478,-0 0.091,-0 0.091,-0Z" style="fill:white;fill-rule:nonzero;stroke:black;stroke-width:0.02px;"/>
                </g>
                <g transform="matrix(738.026,0,0,479.166,2669.69,912.926)">
                    <path d="M0.496,-0.025C0.47,-0.014 0.443,-0.005 0.415,0C0.388,0.006 0.36,0.009 0.332,0.009C0.291,0.009 0.248,0.003 0.209,-0.012C0.177,-0.024 0.135,-0.044 0.114,-0.072C0.082,-0.114 0.059,-0.163 0.042,-0.212C0.022,-0.273 0.01,-0.336 0.003,-0.4C-0.004,-0.462 -0.007,-0.525 0,-0.588C0.006,-0.633 0.016,-0.681 0.038,-0.722C0.054,-0.754 0.079,-0.784 0.109,-0.803C0.14,-0.823 0.178,-0.831 0.214,-0.831C0.226,-0.831 0.238,-0.831 0.25,-0.83C0.262,-0.829 0.274,-0.828 0.285,-0.825C0.296,-0.823 0.308,-0.82 0.319,-0.817C0.332,-0.813 0.345,-0.808 0.357,-0.803C0.357,-0.803 0.384,-0.655 0.384,-0.655C0.36,-0.669 0.333,-0.682 0.306,-0.69C0.286,-0.696 0.263,-0.7 0.242,-0.7C0.219,-0.7 0.194,-0.694 0.175,-0.68C0.157,-0.665 0.143,-0.643 0.135,-0.621C0.125,-0.593 0.121,-0.561 0.12,-0.531C0.118,-0.492 0.121,-0.452 0.126,-0.413C0.132,-0.371 0.14,-0.328 0.153,-0.288C0.163,-0.255 0.177,-0.222 0.196,-0.193C0.212,-0.169 0.233,-0.147 0.257,-0.132C0.281,-0.118 0.31,-0.111 0.338,-0.111C0.348,-0.111 0.362,-0.113 0.372,-0.116C0.383,-0.119 0.396,-0.123 0.407,-0.127C0.419,-0.132 0.431,-0.138 0.442,-0.145C0.453,-0.151 0.463,-0.158 0.473,-0.165C0.473,-0.165 0.496,-0.025 0.496,-0.025Z" style="fill:white;fill-rule:nonzero;stroke:black;stroke-width:0.02px;"/>
                </g>
                <g transform="matrix(738.026,0,0,479.166,3129.33,912.926)">
                    <path d="M0.178,-0.696C0.234,-0.473 0.33,-0.23 0.348,-0C0.348,-0 0.224,-0 0.224,-0C0.207,-0.23 0.119,-0.472 0.066,-0.696C0.066,-0.696 -0.092,-0.696 -0.092,-0.696C-0.092,-0.696 -0.118,-0.82 -0.118,-0.82C-0.118,-0.82 0.301,-0.82 0.301,-0.82C0.301,-0.82 0.336,-0.696 0.336,-0.696C0.336,-0.696 0.178,-0.696 0.178,-0.696Z" style="fill:white;fill-rule:nonzero;stroke:black;stroke-width:0.02px;"/>
                </g>
                <g transform="matrix(738.026,0,0,479.166,3588.98,912.926)">
                    <path d="M0.435,-0.242C0.45,-0.202 0.461,-0.158 0.462,-0.115C0.463,-0.085 0.458,-0.059 0.434,-0.038C0.413,-0.02 0.385,-0.008 0.358,-0.001C0.324,0.008 0.288,0.011 0.253,0.011C0.221,0.011 0.188,0.009 0.155,0.005C0.123,0.001 0.091,-0.006 0.06,-0.014C0.06,-0.014 0.021,-0.159 0.021,-0.159C0.038,-0.151 0.056,-0.144 0.074,-0.138C0.091,-0.132 0.109,-0.126 0.128,-0.121C0.144,-0.117 0.163,-0.113 0.18,-0.11C0.195,-0.107 0.213,-0.106 0.228,-0.106C0.246,-0.106 0.267,-0.107 0.283,-0.114C0.295,-0.118 0.307,-0.127 0.314,-0.137C0.321,-0.146 0.324,-0.16 0.324,-0.171C0.324,-0.185 0.32,-0.201 0.315,-0.214C0.308,-0.234 0.298,-0.253 0.283,-0.269C0.269,-0.283 0.253,-0.296 0.235,-0.307C0.217,-0.318 0.197,-0.328 0.177,-0.337C0.156,-0.346 0.134,-0.355 0.113,-0.365C0.091,-0.375 0.069,-0.387 0.048,-0.399C0.025,-0.412 0.004,-0.428 -0.015,-0.446C-0.035,-0.465 -0.053,-0.488 -0.068,-0.512C-0.086,-0.54 -0.099,-0.571 -0.109,-0.602C-0.117,-0.631 -0.123,-0.662 -0.124,-0.693C-0.124,-0.718 -0.12,-0.744 -0.108,-0.766C-0.097,-0.787 -0.078,-0.804 -0.057,-0.815C-0.029,-0.83 0.004,-0.833 0.035,-0.833C0.047,-0.833 0.059,-0.833 0.071,-0.831C0.084,-0.83 0.097,-0.828 0.109,-0.826C0.122,-0.824 0.134,-0.821 0.146,-0.818C0.158,-0.816 0.169,-0.812 0.18,-0.809C0.18,-0.809 0.23,-0.672 0.23,-0.672C0.219,-0.677 0.206,-0.682 0.194,-0.686C0.182,-0.69 0.169,-0.694 0.156,-0.697C0.143,-0.7 0.13,-0.702 0.118,-0.704C0.106,-0.705 0.094,-0.706 0.082,-0.706C0.067,-0.706 0.05,-0.705 0.036,-0.7C0.026,-0.696 0.016,-0.69 0.009,-0.682C0.003,-0.675 -0,-0.663 -0,-0.654C-0,-0.642 0.002,-0.628 0.006,-0.617C0.011,-0.6 0.021,-0.585 0.033,-0.572C0.046,-0.56 0.061,-0.548 0.077,-0.539C0.095,-0.529 0.114,-0.519 0.133,-0.511C0.154,-0.502 0.176,-0.493 0.197,-0.483C0.219,-0.473 0.242,-0.461 0.263,-0.448C0.286,-0.435 0.308,-0.419 0.328,-0.401C0.35,-0.382 0.37,-0.358 0.386,-0.334C0.407,-0.306 0.423,-0.275 0.435,-0.242Z" style="fill:white;fill-rule:nonzero;stroke:black;stroke-width:0.02px;"/>
                </g>
            </g>
        </g>
    </g>
    <g transform="matrix(0.901923,0,0,0.901923,229.055,169.76)">
        <g transform="matrix(1.09259,0,0,1.24914,-239.317,-3016.79)">
            <text x="459.285px" y="4058.9px" style="font-family:'Consolas', monospace;font-size:130px;fill:rgb(255,4,15);stroke:rgb(255,5,15);stroke-width:4.72px;">*</text>
            <text x="602.234px" y="4058.9px" style="font-family:'Consolas-Bold', 'Consolas', monospace;font-weight:700;font-size:130px;fill:rgb(255,4,15);stroke:rgb(255,5,15);stroke-width:4.72px;">! EXPERIMENTS ON AI AGENT MODELS</text>
            <text x="459.285px" y="4211.12px" style="font-family:'Consolas', monospace;font-size:130px;fill:rgb(11,145,0);">* This project examined dif<tspan x="2391.83px 2466.03px " y="4211.12px 4211.12px ">fe</tspan>rent types of AI vacuum cleaner agents,</text>
            <text x="459.285px" y="4363.34px" style="font-family:'Consolas', monospace;font-size:130px;fill:rgb(11,145,0);">* <tspan x="626.666px " y="4363.34px ">c</tspan>onducting <tspan x="1437.32px 1508.79px 1604.7px " y="4363.34px 4363.34px 4363.34px ">a s</tspan>eries <tspan x="2129.45px " y="4363.34px ">o</tspan>f <tspan x="2368.31px " y="4363.34px ">e</tspan>xperiments <tspan x="3250.43px " y="4363.34px ">i</tspan>n <tspan x="3489.29px " y="4363.34px ">d</tspan>iverse <tspan x="4085.52px " y="4363.34px ">e</tspan>nvironments. <tspan x="5110.6px " y="4363.34px ">T</tspan>he</text>
            <text x="459.285px" y="4515.55px" style="font-family:'Consolas', monospace;font-size:130px;fill:rgb(11,145,0);">* <tspan x="609.228px " y="4515.55px ">g</tspan>oal <tspan x="973.596px " y="4515.55px ">w</tspan>as <tspan x="1266.49px " y="4515.55px ">t</tspan>o <tspan x="1487.91px " y="4515.55px ">g</tspan>ain <tspan x="1852.27px 1923.75px 2002.22px " y="4515.55px 4515.55px 4515.55px ">a d</tspan>eeper <tspan x="2509.53px " y="4515.55px ">p</tspan>ractical <tspan x="3231.27px " y="4515.55px ">u</tspan>nderstanding <tspan x="4238.91px " y="4515.55px ">o</tspan>f <tspan x="4460.33px " y="4515.55px ">e</tspan>ach <tspan x="4824.7px " y="4515.55px ">m</tspan>odel&apos;s</text>
            <text x="459.285px" y="4667.77px" style="font-family:'Consolas', monospace;font-size:130px;fill:rgb(11,145,0);">* capabilities and performance characteristics.</text>
            <g transform="matrix(130,0,0,130,602.234,4819.98)">
            </g>
            <text x="459.285px" y="4819.98px" style="font-family:'Consolas', monospace;font-size:130px;fill:rgb(11,145,0);">*/</text>
        </g>
        <g transform="matrix(1.09259,0,0,1.24914,-395.307,-3207.89)">
            <g transform="matrix(130,0,0,130,673.709,4058.9)">
            </g>
            <text x="459.285px" y="4058.9px" style="font-family:'Consolas', monospace;font-size:130px;fill:rgb(11,145,0);">/**</text>
        </g>
    </g>
</svg>
