<?xml version="1.0" encoding="UTF-8" standalone="no"?>
<!DOCTYPE svg PUBLIC "-//W3C//DTD SVG 1.1//EN" "http://www.w3.org/Graphics/SVG/1.1/DTD/svg11.dtd">
<svg width="100%" height="100%" viewBox="0 0 5372 2500" version="1.1" xmlns="http://www.w3.org/2000/svg" xmlns:xlink="http://www.w3.org/1999/xlink" xml:space="preserve" xmlns:serif="http://www.serif.com/" style="fill-rule:evenodd;clip-rule:evenodd;stroke-linejoin:round;stroke-miterlimit:2;">
    <g transform="matrix(1,0,0,1,19.6661,-1747.27)">
        <g>
            <g transform="matrix(1.45252,0,0,1.45252,-452.956,2201.18)">
                <g transform="matrix(738.026,0,0,479.166,1087.57,534.275)">
                    <path d="M0.255,-0.19C0.304,-0.426 0.352,-0.661 0.401,-0.896C0.401,-0.896 0.697,-0.896 0.697,-0.896C0.697,-0.896 0.682,-0.792 0.682,-0.792C0.682,-0.792 0.476,-0.792 0.476,-0.792C0.476,-0.792 0.444,-0.624 0.444,-0.624C0.444,-0.624 0.647,-0.624 0.647,-0.624C0.647,-0.624 0.63,-0.515 0.63,-0.515C0.63,-0.515 0.423,-0.515 0.423,-0.515C0.423,-0.515 0.385,-0.311 0.385,-0.311C0.385,-0.311 0.61,-0.311 0.61,-0.311C0.61,-0.311 0.592,-0.19 0.592,-0.19C0.592,-0.19 0.255,-0.19 0.255,-0.19Z" style="fill-opacity:0.57;fill-rule:nonzero;"/>
                </g>
                <g transform="matrix(738.026,0,0,479.166,1444.63,534.275)">
                    <path d="M0.57,-0.417C0.568,-0.382 0.561,-0.345 0.546,-0.312C0.534,-0.284 0.516,-0.257 0.494,-0.237C0.472,-0.217 0.446,-0.201 0.418,-0.192C0.388,-0.182 0.356,-0.177 0.324,-0.177C0.296,-0.177 0.267,-0.179 0.24,-0.184C0.213,-0.189 0.186,-0.197 0.161,-0.208C0.161,-0.208 0.181,-0.348 0.181,-0.348C0.193,-0.342 0.206,-0.336 0.219,-0.331C0.232,-0.326 0.246,-0.321 0.259,-0.317C0.272,-0.313 0.287,-0.31 0.3,-0.307C0.313,-0.305 0.328,-0.304 0.341,-0.304C0.357,-0.304 0.375,-0.306 0.391,-0.311C0.404,-0.315 0.417,-0.321 0.427,-0.33C0.435,-0.337 0.443,-0.348 0.448,-0.358C0.453,-0.369 0.456,-0.382 0.457,-0.394C0.459,-0.409 0.457,-0.426 0.45,-0.439C0.444,-0.451 0.434,-0.463 0.423,-0.471C0.412,-0.481 0.398,-0.489 0.384,-0.496C0.369,-0.503 0.354,-0.511 0.339,-0.519C0.324,-0.528 0.309,-0.537 0.296,-0.548C0.282,-0.558 0.269,-0.572 0.259,-0.586C0.249,-0.602 0.242,-0.622 0.238,-0.641C0.233,-0.665 0.234,-0.691 0.238,-0.716C0.241,-0.742 0.248,-0.767 0.259,-0.791C0.269,-0.813 0.283,-0.834 0.3,-0.851C0.318,-0.869 0.34,-0.883 0.364,-0.892C0.391,-0.903 0.421,-0.907 0.45,-0.907C0.46,-0.907 0.471,-0.907 0.481,-0.905C0.491,-0.904 0.502,-0.903 0.512,-0.901C0.522,-0.899 0.532,-0.897 0.542,-0.895C0.55,-0.892 0.559,-0.89 0.567,-0.887C0.567,-0.887 0.559,-0.774 0.559,-0.774C0.551,-0.778 0.541,-0.782 0.533,-0.785C0.523,-0.789 0.513,-0.792 0.503,-0.794C0.493,-0.797 0.483,-0.799 0.473,-0.8C0.463,-0.801 0.453,-0.802 0.443,-0.802C0.429,-0.802 0.414,-0.801 0.4,-0.797C0.39,-0.794 0.379,-0.789 0.37,-0.782C0.362,-0.776 0.355,-0.767 0.351,-0.759C0.347,-0.749 0.344,-0.738 0.343,-0.728C0.341,-0.716 0.343,-0.702 0.349,-0.691C0.355,-0.681 0.365,-0.671 0.374,-0.664C0.386,-0.655 0.399,-0.647 0.413,-0.64C0.427,-0.633 0.442,-0.625 0.457,-0.617C0.472,-0.609 0.487,-0.599 0.501,-0.589C0.516,-0.578 0.529,-0.564 0.539,-0.549C0.551,-0.533 0.559,-0.513 0.565,-0.494C0.571,-0.469 0.572,-0.443 0.57,-0.417Z" style="fill-opacity:0.57;fill-rule:nonzero;"/>
                </g>
                <g transform="matrix(738.026,0,0,479.166,1801.69,534.275)">
                    <path d="M0.495,-0.417C0.495,-0.382 0.491,-0.345 0.478,-0.312C0.468,-0.284 0.453,-0.257 0.431,-0.237C0.411,-0.216 0.386,-0.201 0.359,-0.192C0.329,-0.181 0.297,-0.177 0.266,-0.177C0.238,-0.177 0.209,-0.179 0.181,-0.184C0.154,-0.189 0.127,-0.197 0.101,-0.208C0.101,-0.208 0.11,-0.348 0.11,-0.348C0.123,-0.342 0.136,-0.336 0.149,-0.331C0.163,-0.326 0.177,-0.321 0.191,-0.317C0.204,-0.313 0.219,-0.31 0.233,-0.307C0.245,-0.305 0.26,-0.304 0.273,-0.304C0.29,-0.304 0.308,-0.306 0.323,-0.311C0.335,-0.315 0.348,-0.321 0.357,-0.33C0.366,-0.337 0.373,-0.348 0.377,-0.358C0.381,-0.369 0.383,-0.382 0.383,-0.394C0.383,-0.41 0.381,-0.426 0.373,-0.439C0.365,-0.451 0.355,-0.463 0.344,-0.471C0.331,-0.481 0.317,-0.489 0.303,-0.496C0.287,-0.503 0.271,-0.511 0.256,-0.519C0.24,-0.528 0.225,-0.537 0.21,-0.548C0.196,-0.558 0.182,-0.572 0.171,-0.586C0.16,-0.602 0.151,-0.622 0.146,-0.641C0.139,-0.665 0.138,-0.691 0.14,-0.716C0.141,-0.741 0.146,-0.767 0.155,-0.791C0.163,-0.813 0.176,-0.834 0.192,-0.851C0.209,-0.869 0.23,-0.883 0.253,-0.892C0.279,-0.903 0.31,-0.907 0.338,-0.907C0.348,-0.907 0.359,-0.907 0.369,-0.905C0.379,-0.904 0.39,-0.903 0.4,-0.901C0.41,-0.899 0.421,-0.897 0.43,-0.895C0.439,-0.892 0.448,-0.89 0.457,-0.887C0.457,-0.887 0.457,-0.774 0.457,-0.774C0.448,-0.778 0.439,-0.782 0.43,-0.785C0.42,-0.789 0.41,-0.792 0.4,-0.794C0.39,-0.797 0.379,-0.799 0.368,-0.8C0.359,-0.801 0.348,-0.802 0.339,-0.802C0.325,-0.802 0.31,-0.801 0.296,-0.797C0.286,-0.794 0.276,-0.789 0.267,-0.782C0.26,-0.776 0.254,-0.767 0.25,-0.759C0.246,-0.749 0.244,-0.738 0.244,-0.728C0.243,-0.715 0.246,-0.702 0.253,-0.691C0.26,-0.681 0.27,-0.671 0.28,-0.664C0.293,-0.655 0.307,-0.647 0.32,-0.64C0.336,-0.633 0.351,-0.625 0.366,-0.617C0.382,-0.609 0.398,-0.599 0.413,-0.589C0.428,-0.578 0.442,-0.564 0.454,-0.549C0.466,-0.533 0.477,-0.513 0.483,-0.494C0.492,-0.47 0.495,-0.443 0.495,-0.417Z" style="fill-opacity:0.57;fill-rule:nonzero;"/>
                </g>
                <g transform="matrix(738.026,0,0,479.166,2158.75,534.275)">
                    <path d="M0.364,-0.19C0.364,-0.19 0.324,-0.34 0.324,-0.34C0.324,-0.34 0.133,-0.34 0.133,-0.34C0.133,-0.34 0.105,-0.19 0.105,-0.19C0.105,-0.19 0.001,-0.19 0.001,-0.19C0.051,-0.425 0.099,-0.661 0.145,-0.896C0.145,-0.896 0.275,-0.896 0.275,-0.896C0.341,-0.66 0.41,-0.425 0.48,-0.19C0.48,-0.19 0.364,-0.19 0.364,-0.19ZM0.211,-0.776C0.211,-0.776 0.155,-0.453 0.155,-0.453C0.155,-0.453 0.295,-0.453 0.295,-0.453C0.295,-0.453 0.211,-0.776 0.211,-0.776Z" style="fill-opacity:0.57;fill-rule:nonzero;"/>
                </g>
                <g transform="matrix(738.026,0,0,479.166,2515.81,534.275)">
                    <path d="M0.2,-0.455C0.2,-0.455 0.234,-0.19 0.234,-0.19C0.234,-0.19 0.127,-0.19 0.127,-0.19C0.127,-0.19 0.098,-0.454 0.098,-0.454C0.028,-0.601 -0.109,-0.896 -0.109,-0.896C-0.109,-0.896 -0.006,-0.896 -0.006,-0.896C-0.006,-0.896 0.088,-0.692 0.088,-0.692C0.088,-0.692 0.135,-0.587 0.135,-0.587C0.135,-0.587 0.157,-0.695 0.157,-0.695C0.157,-0.695 0.207,-0.896 0.207,-0.896C0.207,-0.896 0.306,-0.896 0.306,-0.896C0.306,-0.896 0.2,-0.455 0.2,-0.455Z" style="fill-opacity:0.57;fill-rule:nonzero;"/>
                </g>
                <g transform="matrix(738.026,0,0,479.166,2872.87,534.275)">
                    <path d="M0.267,-0.417C0.275,-0.383 0.279,-0.347 0.275,-0.312C0.271,-0.285 0.261,-0.258 0.244,-0.237C0.228,-0.216 0.206,-0.201 0.181,-0.192C0.153,-0.181 0.122,-0.177 0.092,-0.177C0.064,-0.177 0.034,-0.179 0.006,-0.184C-0.023,-0.189 -0.052,-0.197 -0.08,-0.208C-0.08,-0.208 -0.101,-0.348 -0.101,-0.348C-0.088,-0.342 -0.073,-0.336 -0.059,-0.331C-0.044,-0.326 -0.029,-0.321 -0.014,-0.317C-0,-0.313 0.015,-0.31 0.03,-0.307C0.043,-0.305 0.058,-0.304 0.071,-0.304C0.087,-0.304 0.105,-0.306 0.12,-0.311C0.13,-0.315 0.142,-0.321 0.149,-0.33C0.156,-0.337 0.161,-0.348 0.162,-0.358C0.164,-0.37 0.163,-0.383 0.161,-0.394C0.158,-0.41 0.151,-0.427 0.14,-0.439C0.13,-0.451 0.117,-0.463 0.104,-0.471C0.09,-0.481 0.074,-0.489 0.058,-0.496C0.04,-0.503 0.023,-0.511 0.006,-0.519C-0.012,-0.528 -0.029,-0.537 -0.046,-0.548C-0.063,-0.558 -0.08,-0.572 -0.094,-0.586C-0.109,-0.602 -0.122,-0.622 -0.131,-0.641C-0.143,-0.664 -0.15,-0.69 -0.154,-0.716C-0.158,-0.741 -0.159,-0.766 -0.155,-0.791C-0.152,-0.812 -0.144,-0.834 -0.131,-0.851C-0.119,-0.869 -0.1,-0.883 -0.08,-0.892C-0.055,-0.904 -0.025,-0.907 0.002,-0.907C0.013,-0.907 0.023,-0.906 0.033,-0.905C0.044,-0.904 0.055,-0.903 0.066,-0.901C0.076,-0.899 0.087,-0.897 0.097,-0.895C0.107,-0.892 0.116,-0.89 0.125,-0.887C0.125,-0.887 0.15,-0.774 0.15,-0.774C0.141,-0.778 0.13,-0.782 0.121,-0.785C0.11,-0.789 0.099,-0.792 0.089,-0.794C0.078,-0.797 0.067,-0.799 0.056,-0.8C0.046,-0.801 0.036,-0.802 0.026,-0.802C0.012,-0.802 -0.002,-0.801 -0.015,-0.797C-0.024,-0.794 -0.034,-0.789 -0.041,-0.782C-0.047,-0.776 -0.051,-0.767 -0.053,-0.759C-0.055,-0.749 -0.054,-0.738 -0.053,-0.728C-0.05,-0.715 -0.044,-0.702 -0.035,-0.691C-0.026,-0.681 -0.014,-0.671 -0.002,-0.664C0.013,-0.655 0.028,-0.647 0.043,-0.64C0.061,-0.633 0.078,-0.625 0.095,-0.617C0.113,-0.609 0.131,-0.599 0.148,-0.589C0.165,-0.578 0.182,-0.564 0.197,-0.549C0.213,-0.533 0.228,-0.514 0.239,-0.494C0.252,-0.47 0.261,-0.444 0.267,-0.417Z" style="fill-opacity:0.57;fill-rule:nonzero;"/>
                </g>
            </g>
            <g transform="matrix(1.45252,0,0,1.45252,-452.956,2122.18)">
                <g transform="matrix(738.026,0,0,479.166,1087.57,534.275)">
                    <path d="M0.283,-0.212C0.33,-0.44 0.377,-0.668 0.424,-0.895C0.424,-0.895 0.714,-0.895 0.714,-0.895C0.714,-0.895 0.699,-0.795 0.699,-0.795C0.699,-0.795 0.497,-0.795 0.497,-0.795C0.497,-0.795 0.467,-0.632 0.467,-0.632C0.467,-0.632 0.665,-0.632 0.665,-0.632C0.665,-0.632 0.649,-0.526 0.649,-0.526C0.649,-0.526 0.447,-0.526 0.447,-0.526C0.447,-0.526 0.41,-0.329 0.41,-0.329C0.41,-0.329 0.63,-0.329 0.63,-0.329C0.63,-0.329 0.612,-0.212 0.612,-0.212C0.612,-0.212 0.283,-0.212 0.283,-0.212Z" style="fill:white;fill-rule:nonzero;stroke:black;stroke-width:0.02px;"/>
                </g>
                <g transform="matrix(738.026,0,0,479.166,1444.63,534.275)">
                    <path d="M0.579,-0.432C0.577,-0.397 0.57,-0.362 0.556,-0.33C0.544,-0.303 0.527,-0.277 0.505,-0.257C0.484,-0.237 0.458,-0.222 0.43,-0.213C0.401,-0.203 0.37,-0.199 0.339,-0.199C0.312,-0.199 0.284,-0.201 0.257,-0.206C0.231,-0.21 0.204,-0.218 0.18,-0.229C0.18,-0.229 0.199,-0.365 0.199,-0.365C0.211,-0.359 0.224,-0.353 0.236,-0.348C0.249,-0.343 0.262,-0.338 0.275,-0.334C0.288,-0.331 0.302,-0.327 0.316,-0.325C0.328,-0.323 0.342,-0.322 0.355,-0.322C0.371,-0.322 0.389,-0.324 0.405,-0.329C0.417,-0.332 0.429,-0.339 0.439,-0.347C0.448,-0.354 0.455,-0.364 0.46,-0.374C0.465,-0.385 0.468,-0.398 0.469,-0.409C0.47,-0.424 0.469,-0.44 0.462,-0.453C0.456,-0.465 0.446,-0.476 0.436,-0.484C0.424,-0.493 0.411,-0.501 0.397,-0.508C0.383,-0.515 0.368,-0.523 0.354,-0.531C0.339,-0.539 0.324,-0.548 0.311,-0.558C0.297,-0.568 0.285,-0.582 0.276,-0.596C0.265,-0.611 0.258,-0.63 0.254,-0.648C0.249,-0.672 0.251,-0.697 0.254,-0.721C0.257,-0.746 0.264,-0.77 0.274,-0.793C0.284,-0.815 0.298,-0.835 0.315,-0.852C0.333,-0.869 0.354,-0.882 0.377,-0.891C0.402,-0.902 0.434,-0.901 0.461,-0.901C0.471,-0.901 0.481,-0.901 0.491,-0.9C0.501,-0.9 0.512,-0.899 0.522,-0.898C0.531,-0.897 0.542,-0.896 0.551,-0.894C0.559,-0.892 0.568,-0.889 0.576,-0.886C0.576,-0.886 0.568,-0.777 0.568,-0.777C0.56,-0.781 0.551,-0.785 0.542,-0.788C0.533,-0.791 0.523,-0.794 0.514,-0.797C0.504,-0.799 0.493,-0.801 0.484,-0.802C0.474,-0.803 0.464,-0.804 0.455,-0.804C0.441,-0.804 0.426,-0.803 0.413,-0.799C0.403,-0.796 0.392,-0.791 0.383,-0.785C0.376,-0.779 0.369,-0.771 0.365,-0.762C0.361,-0.753 0.358,-0.742 0.357,-0.732C0.355,-0.721 0.357,-0.708 0.363,-0.697C0.369,-0.687 0.378,-0.677 0.388,-0.67C0.399,-0.662 0.412,-0.654 0.425,-0.648C0.44,-0.641 0.454,-0.633 0.468,-0.625C0.483,-0.617 0.498,-0.608 0.512,-0.598C0.526,-0.587 0.539,-0.574 0.549,-0.56C0.56,-0.544 0.569,-0.524 0.574,-0.506C0.58,-0.482 0.581,-0.456 0.579,-0.432Z" style="fill:white;fill-rule:nonzero;stroke:black;stroke-width:0.02px;"/>
                </g>
                <g transform="matrix(738.026,0,0,479.166,1801.69,534.275)">
                    <path d="M0.494,-0.432C0.494,-0.398 0.49,-0.362 0.478,-0.33C0.468,-0.303 0.453,-0.277 0.433,-0.257C0.413,-0.237 0.388,-0.222 0.361,-0.213C0.333,-0.203 0.302,-0.199 0.271,-0.199C0.244,-0.199 0.215,-0.201 0.188,-0.206C0.162,-0.21 0.135,-0.218 0.11,-0.229C0.11,-0.229 0.119,-0.365 0.119,-0.365C0.131,-0.359 0.144,-0.353 0.157,-0.348C0.17,-0.343 0.184,-0.338 0.197,-0.334C0.211,-0.331 0.225,-0.327 0.238,-0.325C0.251,-0.323 0.265,-0.322 0.278,-0.322C0.294,-0.322 0.312,-0.324 0.327,-0.329C0.338,-0.332 0.351,-0.339 0.36,-0.347C0.368,-0.354 0.375,-0.364 0.379,-0.374C0.383,-0.385 0.385,-0.398 0.385,-0.409C0.386,-0.424 0.383,-0.44 0.375,-0.453C0.368,-0.465 0.358,-0.476 0.347,-0.484C0.334,-0.493 0.321,-0.501 0.307,-0.508C0.291,-0.515 0.276,-0.523 0.261,-0.531C0.246,-0.539 0.231,-0.548 0.216,-0.558C0.202,-0.568 0.188,-0.581 0.178,-0.596C0.167,-0.611 0.158,-0.63 0.153,-0.648C0.147,-0.672 0.146,-0.697 0.147,-0.721C0.149,-0.746 0.154,-0.77 0.162,-0.793C0.17,-0.815 0.183,-0.835 0.199,-0.852C0.215,-0.869 0.236,-0.882 0.258,-0.891C0.283,-0.902 0.314,-0.901 0.341,-0.901C0.351,-0.901 0.361,-0.901 0.371,-0.9C0.382,-0.9 0.392,-0.899 0.402,-0.898C0.412,-0.897 0.422,-0.896 0.431,-0.894C0.44,-0.892 0.449,-0.889 0.457,-0.886C0.457,-0.886 0.457,-0.777 0.457,-0.777C0.449,-0.781 0.439,-0.785 0.431,-0.788C0.421,-0.791 0.411,-0.794 0.401,-0.797C0.392,-0.799 0.381,-0.801 0.371,-0.802C0.361,-0.803 0.351,-0.804 0.342,-0.804C0.328,-0.804 0.313,-0.803 0.3,-0.799C0.291,-0.796 0.28,-0.791 0.272,-0.785C0.265,-0.779 0.259,-0.771 0.255,-0.762C0.252,-0.753 0.249,-0.742 0.249,-0.732C0.249,-0.72 0.251,-0.707 0.258,-0.697C0.265,-0.687 0.275,-0.677 0.285,-0.67C0.297,-0.662 0.31,-0.654 0.324,-0.648C0.339,-0.641 0.354,-0.633 0.369,-0.625C0.385,-0.617 0.4,-0.608 0.414,-0.598C0.429,-0.587 0.443,-0.574 0.454,-0.56C0.467,-0.544 0.477,-0.525 0.483,-0.506C0.491,-0.482 0.494,-0.457 0.494,-0.432Z" style="fill:white;fill-rule:nonzero;stroke:black;stroke-width:0.02px;"/>
                </g>
                <g transform="matrix(738.026,0,0,479.166,2158.75,534.275)">
                    <path d="M0.355,-0.212C0.355,-0.212 0.316,-0.357 0.316,-0.357C0.316,-0.357 0.13,-0.357 0.13,-0.357C0.13,-0.357 0.103,-0.212 0.103,-0.212C0.103,-0.212 0.001,-0.212 0.001,-0.212C0.05,-0.439 0.097,-0.667 0.142,-0.895C0.142,-0.895 0.268,-0.895 0.268,-0.895C0.333,-0.667 0.4,-0.439 0.469,-0.212C0.469,-0.212 0.355,-0.212 0.355,-0.212ZM0.206,-0.779C0.206,-0.779 0.151,-0.466 0.151,-0.466C0.151,-0.466 0.288,-0.466 0.288,-0.466C0.288,-0.466 0.206,-0.779 0.206,-0.779Z" style="fill:white;fill-rule:nonzero;stroke:black;stroke-width:0.02px;"/>
                </g>
                <g transform="matrix(738.026,0,0,479.166,2515.81,534.275)">
                    <path d="M0.184,-0.468C0.184,-0.468 0.217,-0.212 0.217,-0.212C0.217,-0.212 0.112,-0.212 0.112,-0.212C0.112,-0.212 0.085,-0.467 0.085,-0.467C0.016,-0.61 -0.118,-0.895 -0.118,-0.895C-0.118,-0.895 -0.017,-0.895 -0.017,-0.895C-0.017,-0.895 0.075,-0.697 0.075,-0.697C0.075,-0.697 0.121,-0.596 0.121,-0.596C0.121,-0.596 0.142,-0.7 0.142,-0.7C0.142,-0.7 0.192,-0.895 0.192,-0.895C0.192,-0.895 0.288,-0.895 0.288,-0.895C0.288,-0.895 0.184,-0.468 0.184,-0.468Z" style="fill:white;fill-rule:nonzero;stroke:black;stroke-width:0.02px;"/>
                </g>
                <g transform="matrix(738.026,0,0,479.166,2872.87,534.275)">
                    <path d="M0.239,-0.432C0.246,-0.399 0.25,-0.363 0.245,-0.33C0.242,-0.304 0.232,-0.277 0.216,-0.257C0.2,-0.237 0.178,-0.222 0.154,-0.213C0.127,-0.203 0.097,-0.199 0.067,-0.199C0.039,-0.199 0.01,-0.201 -0.017,-0.206C-0.045,-0.21 -0.074,-0.218 -0.101,-0.229C-0.101,-0.229 -0.122,-0.365 -0.122,-0.365C-0.108,-0.359 -0.094,-0.353 -0.08,-0.348C-0.066,-0.343 -0.051,-0.338 -0.037,-0.334C-0.023,-0.331 -0.008,-0.328 0.006,-0.325C0.019,-0.323 0.034,-0.322 0.047,-0.322C0.062,-0.322 0.079,-0.323 0.094,-0.329C0.104,-0.332 0.116,-0.339 0.123,-0.347C0.13,-0.354 0.135,-0.365 0.136,-0.374C0.138,-0.386 0.137,-0.398 0.134,-0.409C0.131,-0.425 0.125,-0.441 0.115,-0.453C0.105,-0.465 0.092,-0.476 0.079,-0.484C0.065,-0.493 0.05,-0.501 0.034,-0.508C0.017,-0.515 0,-0.523 -0.017,-0.531C-0.034,-0.539 -0.051,-0.548 -0.067,-0.558C-0.084,-0.568 -0.1,-0.581 -0.114,-0.596C-0.128,-0.611 -0.141,-0.63 -0.151,-0.648C-0.162,-0.671 -0.169,-0.696 -0.173,-0.721C-0.176,-0.745 -0.177,-0.77 -0.174,-0.793C-0.17,-0.814 -0.163,-0.835 -0.15,-0.852C-0.138,-0.869 -0.119,-0.883 -0.1,-0.891C-0.076,-0.902 -0.044,-0.901 -0.018,-0.901C-0.008,-0.901 0.002,-0.901 0.012,-0.9C0.022,-0.9 0.033,-0.899 0.043,-0.898C0.053,-0.897 0.063,-0.896 0.073,-0.894C0.082,-0.892 0.092,-0.889 0.101,-0.886C0.101,-0.886 0.125,-0.777 0.125,-0.777C0.115,-0.781 0.105,-0.785 0.096,-0.788C0.086,-0.791 0.075,-0.794 0.065,-0.797C0.054,-0.799 0.043,-0.801 0.033,-0.802C0.023,-0.803 0.013,-0.804 0.003,-0.804C-0.01,-0.804 -0.024,-0.803 -0.037,-0.799C-0.046,-0.796 -0.055,-0.791 -0.062,-0.785C-0.068,-0.779 -0.072,-0.77 -0.074,-0.762C-0.076,-0.753 -0.075,-0.742 -0.073,-0.732C-0.071,-0.72 -0.065,-0.707 -0.057,-0.697C-0.047,-0.687 -0.036,-0.677 -0.024,-0.67C-0.01,-0.662 0.005,-0.654 0.02,-0.648C0.037,-0.641 0.054,-0.633 0.07,-0.625C0.088,-0.617 0.105,-0.608 0.122,-0.598C0.139,-0.587 0.156,-0.574 0.17,-0.56C0.186,-0.544 0.2,-0.525 0.211,-0.506C0.224,-0.483 0.233,-0.457 0.239,-0.432Z" style="fill:white;fill-rule:nonzero;stroke:black;stroke-width:0.02px;"/>
                </g>
            </g>
        </g>
    </g>
    <g transform="matrix(0.901923,0,0,0.901923,230.462,-340.788)">
        <g transform="matrix(1.09259,0,0,1.24914,-239.317,-3016.79)">
            <text x="459.285px" y="4058.9px" style="font-family:'Consolas', monospace;font-size:130px;fill:rgb(255,4,15);stroke:rgb(255,5,15);stroke-width:4.72px;">*</text>
            <text x="602.234px" y="4058.9px" style="font-family:'Consolas-Bold', 'Consolas', monospace;font-weight:700;font-size:130px;fill:rgb(255,4,15);stroke:rgb(255,5,15);stroke-width:4.72px;">! REFLECTION ON AI PROGRESS</text>
            <g transform="matrix(130,0,0,130,2809.01,4211.12)">
            </g>
            <g transform="matrix(130,0,0,130,2844.75,4211.12)">
            </g>
            <g transform="matrix(130,0,0,130,4747.76,4211.12)">
            </g>
            <g transform="matrix(130,0,0,130,4783.5,4211.12)">
            </g>
            <text x="459.285px" y="4211.12px" style="font-family:'Consolas', monospace;font-size:130px;fill:rgb(11,145,0);">* <tspan x="629.037px " y="4211.12px ">T</tspan>his <tspan x="1013.21px " y="4211.12px ">e</tspan>ssay <tspan x="1468.86px " y="4211.12px ">e</tspan>xamined <tspan x="2138.94px " y="4211.12px ">t</tspan>he <tspan x="2451.64px " y="4211.12px ">s</tspan>igniﬁcant <tspan x="3264.66px " y="4211.12px ">a</tspan>dvancements <tspan x="4220.64px " y="4211.12px ">i</tspan>n <tspan x="4461.86px " y="4211.12px ">a</tspan>rtiﬁcial</text>
            <text x="459.285px" y="4363.34px" style="font-family:'Consolas', monospace;font-size:130px;fill:rgb(11,145,0);">* intelligence over the past four years, exploring its innovative</text>
            <text x="459.285px" y="4515.55px" style="font-family:'Consolas', monospace;font-size:130px;fill:rgb(11,145,0);">* applications across various industries.</text>
            <g transform="matrix(130,0,0,130,602.234,4667.77)">
            </g>
            <text x="459.285px" y="4667.77px" style="font-family:'Consolas', monospace;font-size:130px;fill:rgb(11,145,0);">*/</text>
        </g>
        <g transform="matrix(1.09259,0,0,1.24914,-395.307,-3207.89)">
            <g transform="matrix(130,0,0,130,673.709,4058.9)">
            </g>
            <text x="459.285px" y="4058.9px" style="font-family:'Consolas', monospace;font-size:130px;fill:rgb(11,145,0);">/**</text>
        </g>
    </g>
</svg>
