<?xml version="1.0" encoding="UTF-8" standalone="no"?>
<!DOCTYPE svg PUBLIC "-//W3C//DTD SVG 1.1//EN" "http://www.w3.org/Graphics/SVG/1.1/DTD/svg11.dtd">
<svg width="100%" height="100%" viewBox="0 0 5372 4500" version="1.1" xmlns="http://www.w3.org/2000/svg" xmlns:xlink="http://www.w3.org/1999/xlink" xml:space="preserve" xmlns:serif="http://www.serif.com/" style="fill-rule:evenodd;clip-rule:evenodd;stroke-linejoin:round;stroke-miterlimit:2;">
    <g transform="matrix(1,0,0,1,-16.5364,-1971.15)">
        <g>
            <g transform="matrix(1.45252,0,0,1.45252,-452.956,2198.18)">
                <g transform="matrix(738.026,0,0,479.166,1087.57,534.275)">
                    <path d="M0.476,-0.793C0.476,-0.793 0.441,-0.605 0.441,-0.605C0.441,-0.605 0.637,-0.605 0.637,-0.605C0.637,-0.605 0.621,-0.495 0.621,-0.495C0.621,-0.495 0.42,-0.495 0.42,-0.495C0.42,-0.495 0.363,-0.191 0.363,-0.191C0.363,-0.191 0.256,-0.191 0.256,-0.191C0.305,-0.426 0.353,-0.661 0.402,-0.896C0.402,-0.896 0.692,-0.896 0.692,-0.896C0.692,-0.896 0.677,-0.793 0.677,-0.793C0.677,-0.793 0.476,-0.793 0.476,-0.793Z" style="fill-opacity:0.57;fill-rule:nonzero;"/>
                </g>
                <g transform="matrix(738.026,0,0,479.166,1444.63,534.275)">
                    <path d="M0.582,-0.466C0.579,-0.424 0.573,-0.382 0.559,-0.343C0.549,-0.311 0.534,-0.279 0.512,-0.252C0.494,-0.229 0.47,-0.209 0.443,-0.197C0.415,-0.184 0.384,-0.178 0.354,-0.178C0.324,-0.178 0.291,-0.182 0.264,-0.197C0.241,-0.209 0.221,-0.228 0.208,-0.25C0.194,-0.276 0.188,-0.306 0.186,-0.334C0.183,-0.371 0.185,-0.407 0.19,-0.443C0.19,-0.443 0.254,-0.896 0.254,-0.896C0.254,-0.896 0.347,-0.896 0.347,-0.896C0.347,-0.896 0.292,-0.451 0.292,-0.451C0.29,-0.43 0.288,-0.408 0.289,-0.386C0.29,-0.37 0.293,-0.352 0.3,-0.337C0.305,-0.325 0.315,-0.313 0.326,-0.306C0.339,-0.299 0.356,-0.296 0.37,-0.296C0.385,-0.296 0.401,-0.299 0.415,-0.305C0.427,-0.311 0.439,-0.322 0.447,-0.334C0.457,-0.348 0.464,-0.367 0.469,-0.384C0.475,-0.407 0.479,-0.433 0.481,-0.457C0.481,-0.457 0.519,-0.896 0.519,-0.896C0.519,-0.896 0.612,-0.896 0.612,-0.896C0.612,-0.896 0.582,-0.466 0.582,-0.466Z" style="fill-opacity:0.57;fill-rule:nonzero;"/>
                </g>
                <g transform="matrix(738.026,0,0,479.166,1801.69,534.275)">
                    <path d="M0.367,-0.794C0.362,-0.593 0.358,-0.392 0.354,-0.191C0.354,-0.191 0.246,-0.191 0.246,-0.191C0.254,-0.392 0.262,-0.593 0.27,-0.794C0.27,-0.794 0.133,-0.794 0.133,-0.794C0.133,-0.794 0.14,-0.896 0.14,-0.896C0.14,-0.896 0.503,-0.896 0.503,-0.896C0.503,-0.896 0.504,-0.794 0.504,-0.794C0.504,-0.794 0.367,-0.794 0.367,-0.794Z" style="fill-opacity:0.57;fill-rule:nonzero;"/>
                </g>
                <g transform="matrix(738.026,0,0,479.166,2158.75,534.275)">
                    <path d="M0.423,-0.466C0.426,-0.425 0.426,-0.383 0.418,-0.343C0.412,-0.311 0.402,-0.279 0.385,-0.252C0.369,-0.229 0.348,-0.209 0.323,-0.197C0.297,-0.183 0.267,-0.178 0.237,-0.178C0.206,-0.178 0.173,-0.183 0.144,-0.197C0.119,-0.209 0.097,-0.228 0.081,-0.25C0.064,-0.275 0.052,-0.305 0.046,-0.334C0.038,-0.37 0.035,-0.407 0.034,-0.443C0.034,-0.443 0.031,-0.896 0.031,-0.896C0.031,-0.896 0.123,-0.896 0.123,-0.896C0.123,-0.896 0.135,-0.451 0.135,-0.451C0.136,-0.43 0.137,-0.407 0.141,-0.386C0.145,-0.369 0.151,-0.351 0.159,-0.337C0.167,-0.325 0.178,-0.313 0.19,-0.306C0.204,-0.299 0.221,-0.296 0.236,-0.296C0.25,-0.296 0.267,-0.299 0.279,-0.305C0.29,-0.311 0.301,-0.323 0.307,-0.334C0.315,-0.349 0.319,-0.367 0.321,-0.384C0.325,-0.408 0.324,-0.433 0.323,-0.457C0.323,-0.457 0.296,-0.896 0.296,-0.896C0.296,-0.896 0.389,-0.896 0.389,-0.896C0.389,-0.896 0.423,-0.466 0.423,-0.466Z" style="fill-opacity:0.57;fill-rule:nonzero;"/>
                </g>
                <g transform="matrix(738.026,0,0,479.166,2515.81,534.275)">
                    <path d="M0.277,-0.191C0.277,-0.191 0.17,-0.432 0.17,-0.432C0.161,-0.45 0.15,-0.469 0.134,-0.482C0.121,-0.492 0.104,-0.499 0.088,-0.499C0.088,-0.499 0.069,-0.499 0.069,-0.499C0.069,-0.499 0.1,-0.191 0.1,-0.191C0.1,-0.191 -0.005,-0.191 -0.005,-0.191C-0.025,-0.426 -0.045,-0.661 -0.065,-0.896C-0.065,-0.896 0.078,-0.896 0.078,-0.896C0.103,-0.896 0.129,-0.894 0.153,-0.887C0.175,-0.881 0.196,-0.871 0.214,-0.857C0.232,-0.842 0.247,-0.822 0.258,-0.801C0.272,-0.774 0.28,-0.744 0.284,-0.714C0.287,-0.693 0.288,-0.669 0.286,-0.647C0.283,-0.63 0.278,-0.611 0.27,-0.596C0.262,-0.583 0.251,-0.57 0.238,-0.561C0.226,-0.552 0.21,-0.546 0.195,-0.542C0.211,-0.538 0.224,-0.525 0.234,-0.513C0.251,-0.491 0.265,-0.466 0.276,-0.442C0.276,-0.442 0.401,-0.191 0.401,-0.191C0.401,-0.191 0.277,-0.191 0.277,-0.191ZM0.185,-0.702C0.182,-0.727 0.173,-0.756 0.152,-0.773C0.133,-0.789 0.105,-0.794 0.08,-0.794C0.08,-0.794 0.038,-0.794 0.038,-0.794C0.038,-0.794 0.058,-0.602 0.058,-0.602C0.058,-0.602 0.098,-0.602 0.098,-0.602C0.111,-0.602 0.126,-0.604 0.138,-0.609C0.149,-0.613 0.16,-0.62 0.167,-0.628C0.175,-0.636 0.181,-0.648 0.184,-0.659C0.187,-0.673 0.187,-0.688 0.185,-0.702Z" style="fill-opacity:0.57;fill-rule:nonzero;"/>
                </g>
                <g transform="matrix(738.026,0,0,479.166,2872.87,534.275)">
                    <path d="M-0.041,-0.191C-0.079,-0.426 -0.117,-0.661 -0.156,-0.896C-0.156,-0.896 0.14,-0.896 0.14,-0.896C0.14,-0.896 0.163,-0.793 0.163,-0.793C0.163,-0.793 -0.043,-0.793 -0.043,-0.793C-0.043,-0.793 -0.012,-0.624 -0.012,-0.624C-0.012,-0.624 0.19,-0.624 0.19,-0.624C0.19,-0.624 0.214,-0.515 0.214,-0.515C0.214,-0.515 0.008,-0.515 0.008,-0.515C0.008,-0.515 0.044,-0.312 0.044,-0.312C0.044,-0.312 0.27,-0.312 0.27,-0.312C0.27,-0.312 0.296,-0.191 0.296,-0.191C0.296,-0.191 -0.041,-0.191 -0.041,-0.191Z" style="fill-opacity:0.57;fill-rule:nonzero;"/>
                </g>
                <g transform="matrix(738.026,0,0,479.166,1266.1,912.926)">
                    <path d="M0.546,-0.531C0.542,-0.489 0.532,-0.447 0.517,-0.407C0.503,-0.371 0.483,-0.336 0.458,-0.307C0.433,-0.279 0.403,-0.256 0.369,-0.24C0.333,-0.223 0.293,-0.216 0.253,-0.216C0.253,-0.216 0.193,-0.216 0.193,-0.216C0.193,-0.216 0.181,-0 0.181,-0C0.181,-0 0.059,-0 0.059,-0C0.047,-0.262 0.128,-0.537 0.173,-0.794C0.173,-0.794 0.342,-0.794 0.342,-0.794C0.375,-0.794 0.409,-0.79 0.439,-0.777C0.465,-0.767 0.489,-0.749 0.506,-0.727C0.525,-0.704 0.536,-0.674 0.543,-0.645C0.55,-0.608 0.55,-0.569 0.546,-0.531ZM0.426,-0.52C0.428,-0.54 0.429,-0.562 0.426,-0.581C0.423,-0.597 0.418,-0.615 0.409,-0.628C0.401,-0.64 0.387,-0.651 0.374,-0.657C0.358,-0.664 0.338,-0.667 0.321,-0.667C0.321,-0.667 0.263,-0.667 0.263,-0.667C0.263,-0.667 0.214,-0.355 0.214,-0.355C0.214,-0.355 0.279,-0.355 0.279,-0.355C0.298,-0.355 0.318,-0.359 0.335,-0.367C0.351,-0.374 0.367,-0.387 0.378,-0.4C0.391,-0.415 0.402,-0.434 0.409,-0.453C0.417,-0.474 0.423,-0.498 0.426,-0.52Z" style="fill-opacity:0.57;fill-rule:nonzero;"/>
                </g>
                <g transform="matrix(738.026,0,0,479.166,1623.16,912.926)">
                    <path d="M0.092,-0C0.086,-0.264 0.13,-0.532 0.155,-0.794C0.155,-0.794 0.265,-0.794 0.265,-0.794C0.248,-0.565 0.219,-0.333 0.215,-0.103C0.215,-0.103 0.486,-0.103 0.486,-0.103C0.486,-0.103 0.486,-0 0.486,-0C0.486,-0 0.092,-0 0.092,-0Z" style="fill-opacity:0.57;fill-rule:nonzero;"/>
                </g>
                <g transform="matrix(738.026,0,0,479.166,1980.22,912.926)">
                    <path d="M0.416,-0C0.416,-0 0.381,-0.126 0.381,-0.126C0.381,-0.126 0.157,-0.126 0.157,-0.126C0.157,-0.126 0.12,-0 0.12,-0C0.12,-0 0.001,-0 0.001,-0C0.076,-0.263 0.136,-0.527 0.195,-0.794C0.195,-0.794 0.347,-0.794 0.347,-0.794C0.409,-0.528 0.475,-0.263 0.55,-0C0.55,-0 0.416,-0 0.416,-0ZM0.268,-0.644C0.268,-0.644 0.187,-0.243 0.187,-0.243C0.187,-0.243 0.352,-0.243 0.352,-0.243C0.352,-0.243 0.268,-0.644 0.268,-0.644Z" style="fill-opacity:0.57;fill-rule:nonzero;"/>
                </g>
                <g transform="matrix(738.026,0,0,479.166,2337.28,912.926)">
                    <path d="M0.365,-0C0.365,-0 0.263,-0.224 0.218,-0.339C0.203,-0.379 0.156,-0.499 0.172,-0.459C0.172,-0.459 0.131,-0.568 0.131,-0.568C0.131,-0.568 0.154,-0.206 0.154,-0.206C0.154,-0.206 0.158,-0 0.158,-0C0.158,-0 0.048,-0 0.048,-0C0.051,-0.265 0.03,-0.53 0.018,-0.794C0.018,-0.794 0.152,-0.794 0.152,-0.794C0.197,-0.68 0.242,-0.567 0.289,-0.454C0.311,-0.398 0.381,-0.23 0.358,-0.286C0.358,-0.286 0.398,-0.18 0.398,-0.18C0.398,-0.18 0.338,-0.794 0.338,-0.794C0.338,-0.794 0.437,-0.794 0.437,-0.794C0.467,-0.533 0.521,-0.264 0.512,-0C0.512,-0 0.365,-0 0.365,-0Z" style="fill-opacity:0.57;fill-rule:nonzero;"/>
                </g>
                <g transform="matrix(738.026,0,0,479.166,2694.34,912.926)">
                    <path d="M0.494,-0.199C0.501,-0.166 0.501,-0.133 0.487,-0.102C0.476,-0.077 0.456,-0.055 0.433,-0.039C0.408,-0.021 0.379,-0.009 0.349,-0.001C0.314,0.007 0.279,0.011 0.243,0.011C0.211,0.011 0.178,0.009 0.146,0.005C0.115,0.001 0.083,-0.005 0.053,-0.014C0.053,-0.014 0.052,-0.133 0.052,-0.133C0.068,-0.128 0.084,-0.123 0.1,-0.118C0.116,-0.114 0.133,-0.11 0.15,-0.106C0.166,-0.103 0.183,-0.1 0.199,-0.098C0.215,-0.097 0.232,-0.095 0.247,-0.095C0.267,-0.095 0.287,-0.097 0.306,-0.101C0.319,-0.105 0.333,-0.11 0.344,-0.117C0.352,-0.123 0.361,-0.132 0.364,-0.142C0.368,-0.151 0.369,-0.163 0.367,-0.173C0.364,-0.192 0.357,-0.211 0.345,-0.226C0.334,-0.241 0.319,-0.255 0.304,-0.265C0.287,-0.277 0.268,-0.287 0.249,-0.296C0.229,-0.305 0.209,-0.315 0.189,-0.325C0.168,-0.336 0.148,-0.348 0.129,-0.36C0.109,-0.373 0.089,-0.39 0.074,-0.408C0.057,-0.428 0.042,-0.452 0.031,-0.476C0.018,-0.505 0.011,-0.538 0.007,-0.57C0.004,-0.6 0.004,-0.632 0.009,-0.663C0.013,-0.689 0.023,-0.716 0.039,-0.738C0.054,-0.76 0.076,-0.777 0.1,-0.789C0.13,-0.803 0.165,-0.808 0.198,-0.808C0.21,-0.808 0.222,-0.807 0.234,-0.806C0.247,-0.804 0.26,-0.802 0.272,-0.8C0.284,-0.798 0.297,-0.795 0.309,-0.792C0.32,-0.789 0.331,-0.786 0.342,-0.782C0.342,-0.782 0.367,-0.642 0.367,-0.642C0.357,-0.647 0.345,-0.652 0.333,-0.656C0.321,-0.66 0.308,-0.664 0.296,-0.667C0.284,-0.67 0.27,-0.672 0.258,-0.674C0.246,-0.676 0.234,-0.677 0.222,-0.677C0.206,-0.677 0.189,-0.675 0.174,-0.67C0.163,-0.666 0.151,-0.66 0.143,-0.652C0.135,-0.644 0.13,-0.633 0.128,-0.623C0.125,-0.61 0.126,-0.597 0.127,-0.584C0.13,-0.568 0.136,-0.552 0.146,-0.539C0.157,-0.526 0.171,-0.514 0.185,-0.504C0.202,-0.493 0.219,-0.484 0.237,-0.475C0.257,-0.466 0.277,-0.456 0.297,-0.447C0.318,-0.436 0.339,-0.424 0.359,-0.411C0.379,-0.397 0.399,-0.38 0.416,-0.362C0.435,-0.342 0.451,-0.318 0.463,-0.294C0.479,-0.264 0.488,-0.231 0.494,-0.199Z" style="fill-opacity:0.57;fill-rule:nonzero;"/>
                </g>
            </g>
            <g transform="matrix(1.45252,0,0,1.45252,-452.956,2122.18)">
                <g transform="matrix(738.026,0,0,479.166,1087.57,534.275)">
                    <path d="M0.497,-0.795C0.497,-0.795 0.463,-0.613 0.463,-0.613C0.463,-0.613 0.655,-0.613 0.655,-0.613C0.655,-0.613 0.639,-0.507 0.639,-0.507C0.639,-0.507 0.443,-0.507 0.443,-0.507C0.443,-0.507 0.388,-0.212 0.388,-0.212C0.388,-0.212 0.283,-0.212 0.283,-0.212C0.33,-0.44 0.377,-0.668 0.424,-0.895C0.424,-0.895 0.708,-0.895 0.708,-0.895C0.708,-0.895 0.693,-0.795 0.693,-0.795C0.693,-0.795 0.497,-0.795 0.497,-0.795Z" style="fill:white;fill-rule:nonzero;stroke:black;stroke-width:0.02px;"/>
                </g>
                <g transform="matrix(738.026,0,0,479.166,1444.63,534.275)">
                    <path d="M0.59,-0.478C0.588,-0.438 0.581,-0.397 0.568,-0.359C0.558,-0.328 0.543,-0.297 0.522,-0.271C0.504,-0.248 0.481,-0.229 0.454,-0.217C0.428,-0.205 0.397,-0.199 0.368,-0.199C0.338,-0.199 0.306,-0.203 0.279,-0.217C0.257,-0.229 0.238,-0.247 0.225,-0.269C0.212,-0.294 0.205,-0.323 0.203,-0.351C0.2,-0.386 0.203,-0.421 0.208,-0.456C0.208,-0.456 0.269,-0.895 0.269,-0.895C0.269,-0.895 0.36,-0.895 0.36,-0.895C0.36,-0.895 0.307,-0.464 0.307,-0.464C0.305,-0.443 0.303,-0.422 0.304,-0.401C0.305,-0.385 0.308,-0.368 0.315,-0.353C0.32,-0.342 0.33,-0.33 0.34,-0.324C0.353,-0.316 0.37,-0.314 0.384,-0.314C0.398,-0.314 0.414,-0.316 0.427,-0.322C0.439,-0.328 0.451,-0.339 0.458,-0.35C0.468,-0.364 0.475,-0.382 0.48,-0.399C0.486,-0.421 0.489,-0.446 0.491,-0.469C0.491,-0.469 0.529,-0.895 0.529,-0.895C0.529,-0.895 0.619,-0.895 0.619,-0.895C0.619,-0.895 0.59,-0.478 0.59,-0.478Z" style="fill:white;fill-rule:nonzero;stroke:black;stroke-width:0.02px;"/>
                </g>
                <g transform="matrix(738.026,0,0,479.166,1801.69,534.275)">
                    <path d="M0.369,-0.796C0.365,-0.602 0.361,-0.407 0.356,-0.212C0.356,-0.212 0.251,-0.212 0.251,-0.212C0.259,-0.407 0.267,-0.602 0.274,-0.796C0.274,-0.796 0.14,-0.796 0.14,-0.796C0.14,-0.796 0.147,-0.895 0.147,-0.895C0.147,-0.895 0.503,-0.895 0.503,-0.895C0.503,-0.895 0.503,-0.796 0.503,-0.796C0.503,-0.796 0.369,-0.796 0.369,-0.796Z" style="fill:white;fill-rule:nonzero;stroke:black;stroke-width:0.02px;"/>
                </g>
                <g transform="matrix(738.026,0,0,479.166,2158.75,534.275)">
                    <path d="M0.413,-0.478C0.416,-0.439 0.416,-0.398 0.409,-0.359C0.403,-0.328 0.393,-0.297 0.376,-0.271C0.361,-0.248 0.34,-0.229 0.316,-0.217C0.29,-0.204 0.26,-0.199 0.232,-0.199C0.201,-0.199 0.169,-0.204 0.141,-0.217C0.116,-0.229 0.094,-0.247 0.079,-0.269C0.062,-0.293 0.051,-0.322 0.045,-0.351C0.037,-0.385 0.034,-0.421 0.034,-0.456C0.034,-0.456 0.03,-0.895 0.03,-0.895C0.03,-0.895 0.121,-0.895 0.121,-0.895C0.121,-0.895 0.132,-0.464 0.132,-0.464C0.132,-0.443 0.134,-0.421 0.138,-0.401C0.141,-0.385 0.147,-0.367 0.156,-0.353C0.163,-0.342 0.174,-0.33 0.186,-0.324C0.199,-0.316 0.216,-0.314 0.231,-0.314C0.244,-0.314 0.26,-0.316 0.273,-0.322C0.284,-0.328 0.294,-0.339 0.3,-0.35C0.308,-0.364 0.312,-0.382 0.314,-0.399C0.317,-0.422 0.317,-0.446 0.315,-0.469C0.315,-0.469 0.29,-0.895 0.29,-0.895C0.29,-0.895 0.38,-0.895 0.38,-0.895C0.38,-0.895 0.413,-0.478 0.413,-0.478Z" style="fill:white;fill-rule:nonzero;stroke:black;stroke-width:0.02px;"/>
                </g>
                <g transform="matrix(738.026,0,0,479.166,2515.81,534.275)">
                    <path d="M0.26,-0.212C0.26,-0.212 0.155,-0.445 0.155,-0.445C0.147,-0.463 0.136,-0.481 0.12,-0.494C0.107,-0.504 0.091,-0.51 0.075,-0.51C0.075,-0.51 0.056,-0.51 0.056,-0.51C0.056,-0.51 0.087,-0.212 0.087,-0.212C0.087,-0.212 -0.016,-0.212 -0.016,-0.212C-0.035,-0.44 -0.055,-0.668 -0.074,-0.895C-0.074,-0.895 0.066,-0.895 0.066,-0.895C0.09,-0.895 0.116,-0.893 0.139,-0.887C0.161,-0.881 0.181,-0.871 0.199,-0.857C0.217,-0.843 0.231,-0.823 0.242,-0.803C0.255,-0.777 0.263,-0.748 0.267,-0.719C0.27,-0.698 0.271,-0.675 0.269,-0.654C0.266,-0.638 0.261,-0.619 0.253,-0.605C0.246,-0.592 0.234,-0.579 0.222,-0.571C0.21,-0.562 0.194,-0.555 0.18,-0.552C0.195,-0.548 0.208,-0.536 0.218,-0.524C0.235,-0.503 0.248,-0.478 0.259,-0.455C0.259,-0.455 0.381,-0.212 0.381,-0.212C0.381,-0.212 0.26,-0.212 0.26,-0.212ZM0.17,-0.707C0.167,-0.732 0.158,-0.759 0.138,-0.776C0.119,-0.791 0.092,-0.796 0.067,-0.796C0.067,-0.796 0.027,-0.796 0.027,-0.796C0.027,-0.796 0.046,-0.611 0.046,-0.611C0.046,-0.611 0.085,-0.611 0.085,-0.611C0.098,-0.611 0.112,-0.612 0.124,-0.617C0.135,-0.62 0.145,-0.627 0.153,-0.635C0.16,-0.643 0.166,-0.655 0.169,-0.666C0.172,-0.679 0.172,-0.694 0.17,-0.707Z" style="fill:white;fill-rule:nonzero;stroke:black;stroke-width:0.02px;"/>
                </g>
                <g transform="matrix(738.026,0,0,479.166,2872.87,534.275)">
                    <path d="M-0.062,-0.212C-0.099,-0.44 -0.136,-0.668 -0.173,-0.895C-0.173,-0.895 0.116,-0.895 0.116,-0.895C0.116,-0.895 0.138,-0.795 0.138,-0.795C0.138,-0.795 -0.063,-0.795 -0.063,-0.795C-0.063,-0.795 -0.033,-0.632 -0.033,-0.632C-0.033,-0.632 0.165,-0.632 0.165,-0.632C0.165,-0.632 0.188,-0.526 0.188,-0.526C0.188,-0.526 -0.014,-0.526 -0.014,-0.526C-0.014,-0.526 0.021,-0.329 0.021,-0.329C0.021,-0.329 0.242,-0.329 0.242,-0.329C0.242,-0.329 0.268,-0.212 0.268,-0.212C0.268,-0.212 -0.062,-0.212 -0.062,-0.212Z" style="fill:white;fill-rule:nonzero;stroke:black;stroke-width:0.02px;"/>
                </g>
                <g transform="matrix(738.026,0,0,479.166,1266.1,912.926)">
                    <path d="M0.561,-0.565C0.557,-0.524 0.548,-0.483 0.533,-0.445C0.519,-0.41 0.5,-0.376 0.475,-0.347C0.451,-0.32 0.421,-0.297 0.389,-0.282C0.354,-0.266 0.314,-0.259 0.276,-0.259C0.276,-0.259 0.216,-0.259 0.216,-0.259C0.216,-0.259 0.18,-0 0.18,-0C0.18,-0 0.058,-0 0.058,-0C0.073,-0.272 0.15,-0.552 0.196,-0.82C0.196,-0.82 0.362,-0.82 0.362,-0.82C0.394,-0.82 0.427,-0.816 0.457,-0.804C0.482,-0.794 0.505,-0.777 0.522,-0.755C0.54,-0.733 0.552,-0.704 0.558,-0.676C0.565,-0.64 0.565,-0.602 0.561,-0.565ZM0.444,-0.555C0.446,-0.574 0.446,-0.595 0.444,-0.614C0.441,-0.629 0.436,-0.646 0.427,-0.659C0.419,-0.671 0.406,-0.681 0.393,-0.687C0.378,-0.694 0.358,-0.697 0.341,-0.697C0.341,-0.697 0.284,-0.697 0.284,-0.697C0.284,-0.697 0.237,-0.394 0.237,-0.394C0.237,-0.394 0.301,-0.394 0.301,-0.394C0.319,-0.394 0.339,-0.398 0.355,-0.405C0.371,-0.413 0.386,-0.425 0.397,-0.438C0.41,-0.453 0.42,-0.471 0.427,-0.489C0.436,-0.51 0.441,-0.533 0.444,-0.555Z" style="fill:white;fill-rule:nonzero;stroke:black;stroke-width:0.02px;"/>
                </g>
                <g transform="matrix(738.026,0,0,479.166,1623.16,912.926)">
                    <path d="M0.092,-0C0.1,-0.273 0.142,-0.549 0.168,-0.82C0.168,-0.82 0.276,-0.82 0.276,-0.82C0.258,-0.586 0.24,-0.351 0.222,-0.117C0.222,-0.117 0.489,-0.117 0.489,-0.117C0.489,-0.117 0.486,-0 0.486,-0C0.486,-0 0.092,-0 0.092,-0Z" style="fill:white;fill-rule:nonzero;stroke:black;stroke-width:0.02px;"/>
                </g>
                <g transform="matrix(738.026,0,0,479.166,1980.22,912.926)">
                    <path d="M0.416,-0C0.416,-0 0.378,-0.149 0.378,-0.149C0.378,-0.149 0.158,-0.149 0.158,-0.149C0.158,-0.149 0.12,-0 0.12,-0C0.12,-0 0,-0 0,-0C0.083,-0.268 0.135,-0.547 0.196,-0.82C0.196,-0.82 0.345,-0.82 0.345,-0.82C0.409,-0.547 0.466,-0.268 0.55,-0C0.55,-0 0.416,-0 0.416,-0ZM0.267,-0.675C0.267,-0.675 0.188,-0.285 0.188,-0.285C0.188,-0.285 0.349,-0.285 0.349,-0.285C0.349,-0.285 0.267,-0.675 0.267,-0.675Z" style="fill:white;fill-rule:nonzero;stroke:black;stroke-width:0.02px;"/>
                </g>
                <g transform="matrix(738.026,0,0,479.166,2337.28,912.926)">
                    <path d="M0.365,-0C0.365,-0 0.26,-0.244 0.212,-0.367C0.195,-0.41 0.145,-0.537 0.162,-0.495C0.162,-0.495 0.122,-0.601 0.122,-0.601C0.122,-0.601 0.144,-0.249 0.144,-0.249C0.144,-0.249 0.158,-0 0.158,-0C0.158,-0 0.048,-0 0.048,-0C0.044,-0.273 0.024,-0.547 0.012,-0.82C0.012,-0.82 0.143,-0.82 0.143,-0.82C0.186,-0.71 0.231,-0.6 0.276,-0.49C0.298,-0.435 0.366,-0.273 0.343,-0.327C0.343,-0.327 0.383,-0.225 0.383,-0.225C0.383,-0.225 0.324,-0.82 0.324,-0.82C0.324,-0.82 0.421,-0.82 0.421,-0.82C0.452,-0.549 0.503,-0.273 0.513,-0C0.513,-0 0.365,-0 0.365,-0Z" style="fill:white;fill-rule:nonzero;stroke:black;stroke-width:0.02px;"/>
                </g>
                <g transform="matrix(738.026,0,0,479.166,2694.34,912.926)">
                    <path d="M0.466,-0.242C0.473,-0.201 0.477,-0.157 0.47,-0.115C0.465,-0.084 0.455,-0.059 0.429,-0.038C0.406,-0.02 0.378,-0.008 0.349,-0.001C0.315,0.008 0.28,0.011 0.245,0.011C0.212,0.011 0.179,0.009 0.147,0.005C0.115,0.001 0.083,-0.005 0.052,-0.014C0.052,-0.014 0.037,-0.159 0.037,-0.159C0.053,-0.151 0.07,-0.144 0.086,-0.138C0.103,-0.132 0.12,-0.126 0.137,-0.121C0.153,-0.117 0.171,-0.113 0.187,-0.11C0.202,-0.107 0.22,-0.106 0.235,-0.106C0.253,-0.106 0.274,-0.108 0.291,-0.114C0.304,-0.119 0.318,-0.127 0.327,-0.137C0.335,-0.146 0.34,-0.159 0.343,-0.171C0.345,-0.185 0.344,-0.2 0.342,-0.214C0.339,-0.234 0.332,-0.253 0.32,-0.269C0.309,-0.283 0.294,-0.297 0.279,-0.307C0.263,-0.318 0.245,-0.328 0.227,-0.337C0.207,-0.346 0.187,-0.355 0.168,-0.365C0.147,-0.375 0.128,-0.387 0.108,-0.399C0.089,-0.412 0.07,-0.428 0.055,-0.446C0.038,-0.465 0.024,-0.489 0.014,-0.512C0.001,-0.54 -0.006,-0.571 -0.01,-0.602C-0.013,-0.632 -0.013,-0.663 -0.008,-0.693C-0.004,-0.719 0.006,-0.745 0.021,-0.766C0.036,-0.787 0.058,-0.804 0.081,-0.815C0.11,-0.829 0.145,-0.833 0.177,-0.833C0.188,-0.833 0.201,-0.833 0.212,-0.831C0.224,-0.83 0.237,-0.828 0.249,-0.826C0.261,-0.824 0.273,-0.821 0.285,-0.818C0.296,-0.816 0.307,-0.812 0.317,-0.809C0.317,-0.809 0.342,-0.672 0.342,-0.672C0.331,-0.678 0.32,-0.682 0.309,-0.686C0.297,-0.69 0.284,-0.694 0.272,-0.697C0.26,-0.7 0.247,-0.702 0.235,-0.704C0.224,-0.705 0.212,-0.706 0.2,-0.706C0.185,-0.706 0.167,-0.705 0.153,-0.7C0.142,-0.696 0.13,-0.69 0.123,-0.682C0.115,-0.675 0.11,-0.664 0.108,-0.654C0.106,-0.642 0.106,-0.629 0.107,-0.617C0.11,-0.601 0.116,-0.585 0.126,-0.572C0.136,-0.56 0.15,-0.548 0.164,-0.539C0.18,-0.528 0.197,-0.519 0.215,-0.511C0.234,-0.502 0.254,-0.493 0.273,-0.483C0.294,-0.473 0.314,-0.461 0.333,-0.448C0.353,-0.435 0.373,-0.419 0.389,-0.401C0.407,-0.382 0.423,-0.358 0.435,-0.334C0.45,-0.306 0.46,-0.274 0.466,-0.242Z" style="fill:white;fill-rule:nonzero;stroke:black;stroke-width:0.02px;"/>
                </g>
            </g>
        </g>
    </g>
    <g transform="matrix(0.901923,0,0,0.901923,-17.1811,219.332)">
        <g transform="matrix(1.09259,0,0,1.24914,-239.317,-3016.79)">
            <text x="459.285px" y="4058.9px" style="font-family:'Consolas', monospace;font-size:130px;fill:rgb(255,4,15);stroke:rgb(255,5,15);stroke-width:4.72px;">*</text>
            <text x="602.234px" y="4058.9px" style="font-family:'Consolas-Bold', 'Consolas', monospace;font-weight:700;font-size:130px;fill:rgb(255,4,15);stroke:rgb(255,5,15);stroke-width:4.72px;">! A BETTER FUTURE FOR ALL</text>
            <text x="459.285px" y="4211.12px" style="font-family:'Consolas', monospace;font-size:130px;fill:rgb(11,145,0);">* <tspan x="628.225px " y="4211.12px ">D</tspan>rawing <tspan x="1226.01px " y="4211.12px ">o</tspan>n <tspan x="1466.43px " y="4211.12px ">t</tspan>he <tspan x="1778.32px " y="4211.12px ">k</tspan>nowledge <tspan x="2519.05px " y="4211.12px ">a</tspan>cquired <tspan x="3188.32px " y="4211.12px ">f</tspan>rom <tspan x="3571.68px " y="4211.12px ">t</tspan>his <tspan x="3955.04px " y="4211.12px ">c</tspan>ourse, <tspan x="4552.83px 4624.31px 4721.77px " y="4211.12px 4211.12px 4211.12px ">I a</tspan>m <tspan x="4962.19px " y="4211.12px ">c</tspan>ommitted</text>
            <text x="459.285px" y="4363.34px" style="font-family:'Consolas', monospace;font-size:130px;fill:rgb(11,145,0);">* <tspan x="628.225px " y="4363.34px ">t</tspan>o <tspan x="868.64px " y="4363.34px ">d</tspan>eveloping <tspan x="1680.85px " y="4363.34px ">A</tspan>I <tspan x="1921.27px " y="4363.34px ">a</tspan>gents <tspan x="2447.58px " y="4363.34px ">a</tspan>nd <tspan x="2759.47px " y="4363.34px ">s</tspan>ystems <tspan x="3357.26px " y="4363.34px ">t</tspan>hat <tspan x="3740.62px " y="4363.34px ">e</tspan>nhance <tspan x="4338.41px " y="4363.34px ">e</tspan>veryday <tspan x="5007.67px " y="4363.34px ">l</tspan>ife <tspan x="5391.03px " y="4363.34px ">a</tspan>nd</text>
            <text x="459.285px" y="4515.55px" style="font-family:'Consolas', monospace;font-size:130px;fill:rgb(11,145,0);">* <tspan x="658.842px " y="4515.55px ">a</tspan>ugment <tspan x="1287.25px " y="4515.55px ">h</tspan>uman <tspan x="1772.7px 1844.18px 1918.51px 1992.85px " y="4515.55px 4515.55px 4515.55px 4515.55px ">effo</tspan>rts. <tspan x="2478.3px " y="4515.55px ">B</tspan>y <tspan x="2749.33px " y="4515.55px ">i</tspan>ntegrating <tspan x="3663.64px " y="4515.55px ">A</tspan>I <tspan x="3934.67px " y="4515.55px ">w</tspan>ith <tspan x="4348.65px " y="4515.55px ">r</tspan>obotics, <tspan x="5120px " y="4515.55px ">w</tspan>e <tspan x="5391.03px " y="4515.55px ">c</tspan>an</text>
            <text x="459.285px" y="4667.77px" style="font-family:'Consolas', monospace;font-size:130px;fill:rgb(11,145,0);">* <tspan x="704.341px " y="4667.77px ">e</tspan>ngineer <tspan x="1449.72px " y="4667.77px ">s</tspan>ystems <tspan x="2123.62px " y="4667.77px ">t</tspan>hat <tspan x="2583.1px " y="4667.77px ">s</tspan>treamline <tspan x="3471.43px " y="4667.77px ">r</tspan>epetitive <tspan x="4359.76px " y="4667.77px ">t</tspan>asks, <tspan x="4962.19px " y="4667.77px ">a</tspan>lleviate</text>
            <text x="459.285px" y="4819.98px" style="font-family:'Consolas', monospace;font-size:130px;fill:rgb(11,145,0);">* <tspan x="704.341px " y="4819.98px ">p</tspan>hysical <tspan x="1449.72px " y="4819.98px ">d</tspan>emands, <tspan x="2195.1px " y="4819.98px ">s</tspan>upport <tspan x="2869px " y="4819.98px ">i</tspan>ndividuals <tspan x="3828.8px " y="4819.98px ">w</tspan>ith <tspan x="4288.28px " y="4819.98px ">d</tspan>isabilities, <tspan x="5391.03px " y="4819.98px ">a</tspan>nd</text>
            <text x="459.285px" y="4972.2px" style="font-family:'Consolas', monospace;font-size:130px;fill:rgb(11,145,0);">* <tspan x="673.709px " y="4972.2px ">m</tspan>itigate <tspan x="1388.45px " y="4972.2px ">r</tspan>isks <tspan x="1888.78px " y="4972.2px ">a</tspan>ssociated <tspan x="2746.47px " y="4972.2px ">w</tspan>ith <tspan x="3175.32px " y="4972.2px ">h</tspan>azardous <tspan x="3961.54px " y="4972.2px ">w</tspan>ork. <tspan x="4461.86px " y="4972.2px ">A</tspan>dditionally, <tspan x="5533.98px " y="4972.2px ">I</tspan></text>
            <text x="459.285px" y="5124.42px" style="font-family:'Consolas', monospace;font-size:130px;fill:rgb(11,145,0);">* <tspan x="623.677px " y="5124.42px ">i</tspan>ntend <tspan x="1145.44px " y="5124.42px ">t</tspan>o <tspan x="1381.31px " y="5124.42px ">u</tspan>tilize <tspan x="1974.55px " y="5124.42px ">t</tspan>he <tspan x="2281.89px " y="5124.42px ">a</tspan>lgorithms <tspan x="3089.55px " y="5124.42px ">a</tspan>nd <tspan x="3396.89px " y="5124.42px ">m</tspan>ethodologies <tspan x="4418.98px " y="5124.42px ">I</tspan>&apos;ve <tspan x="4797.79px " y="5124.42px ">m</tspan>astered <tspan x="5462.51px " y="5124.42px ">t</tspan>o</text>
            <text x="459.285px" y="5276.64px" style="font-family:'Consolas', monospace;font-size:130px;fill:rgb(11,145,0);">* <tspan x="663.995px " y="5276.64px ">d</tspan>evelop <tspan x="1297.55px " y="5276.64px ">o</tspan>ptimal <tspan x="1931.11px " y="5276.64px ">a</tspan>nd <tspan x="2278.77px 2350.24px 2424.84px 2499.43px " y="5276.64px 5276.64px 5276.64px 5276.64px ">effi</tspan>cient <tspan x="3061.51px " y="5276.64px ">s</tspan>olutions <tspan x="3838.02px " y="5276.64px ">f</tspan>or <tspan x="4185.68px " y="5276.64px ">c</tspan>ritical <tspan x="4890.71px " y="5276.64px ">u</tspan>nresolved</text>
            <text x="459.285px" y="5428.85px" style="font-family:'Consolas', monospace;font-size:130px;fill:rgb(11,145,0);">* <tspan x="673.709px " y="5428.85px ">c</tspan>hallenges <tspan x="1531.4px " y="5428.85px ">i</tspan>n <tspan x="1817.3px " y="5428.85px ">d</tspan>iverse <tspan x="2460.57px " y="5428.85px ">d</tspan>isciplines. <tspan x="3461.22px " y="5428.85px ">I</tspan>n <tspan x="3747.12px " y="5428.85px ">e</tspan>ssence, <tspan x="4461.86px " y="5428.85px ">m</tspan>y <tspan x="4747.76px " y="5428.85px ">g</tspan>oal <tspan x="5176.61px " y="5428.85px ">i</tspan>s <tspan x="5462.51px " y="5428.85px ">t</tspan>o</text>
            <text x="459.285px" y="5581.07px" style="font-family:'Consolas', monospace;font-size:130px;fill:rgb(11,145,0);">* <tspan x="681.651px " y="5581.07px ">l</tspan>everage <tspan x="1404.34px " y="5581.07px ">m</tspan>y <tspan x="1698.18px " y="5581.07px ">n</tspan>ewfound <tspan x="2420.87px " y="5581.07px ">k</tspan>nowledge <tspan x="3215.03px " y="5581.07px ">t</tspan>o <tspan x="3508.87px " y="5581.07px ">p</tspan>ropel <tspan x="4088.61px " y="5581.07px ">t</tspan>he <tspan x="4453.92px " y="5581.07px ">r</tspan>esponsible <tspan x="5391.03px " y="5581.07px ">a</tspan>nd</text>
            <g transform="matrix(130,0,0,130,2532.05,5733.29)">
            </g>
            <g transform="matrix(130,0,0,130,2567.79,5733.29)">
            </g>
            <text x="459.285px" y="5733.29px" style="font-family:'Consolas', monospace;font-size:130px;fill:rgb(11,145,0);">* ethical advancement of Artiﬁcial Intelligence, ultimately contributing</text>
            <text x="459.285px" y="5885.5px" style="font-family:'Consolas', monospace;font-size:130px;fill:rgb(11,145,0);">* to a better future for all.</text>
            <g transform="matrix(130,0,0,130,602.234,6037.72)">
            </g>
            <text x="459.285px" y="6037.72px" style="font-family:'Consolas', monospace;font-size:130px;fill:rgb(11,145,0);">*/</text>
        </g>
        <g transform="matrix(1.09259,0,0,1.24914,-395.307,-3207.89)">
            <g transform="matrix(130,0,0,130,673.709,4058.9)">
            </g>
            <text x="459.285px" y="4058.9px" style="font-family:'Consolas', monospace;font-size:130px;fill:rgb(11,145,0);">/**</text>
        </g>
    </g>
</svg>
